<?xml version="1.0" encoding="utf-8" standalone="no"?>
<!DOCTYPE svg PUBLIC "-//W3C//DTD SVG 1.1//EN"
  "http://www.w3.org/Graphics/SVG/1.1/DTD/svg11.dtd">
<svg xmlns:xlink="http://www.w3.org/1999/xlink" width="616.932812pt" height="503.394375pt" viewBox="0 0 616.932812 503.394375" xmlns="http://www.w3.org/2000/svg" version="1.1">
 <metadata>
  <rdf:RDF xmlns:dc="http://purl.org/dc/elements/1.1/" xmlns:cc="http://creativecommons.org/ns#" xmlns:rdf="http://www.w3.org/1999/02/22-rdf-syntax-ns#">
   <cc:Work>
    <dc:type rdf:resource="http://purl.org/dc/dcmitype/StillImage"/>
    <dc:date>2025-03-18T15:47:26.444273</dc:date>
    <dc:format>image/svg+xml</dc:format>
    <dc:creator>
     <cc:Agent>
      <dc:title>Matplotlib v3.7.2, https://matplotlib.org/</dc:title>
     </cc:Agent>
    </dc:creator>
   </cc:Work>
  </rdf:RDF>
 </metadata>
 <defs>
  <style type="text/css">*{stroke-linejoin: round; stroke-linecap: butt}</style>
 </defs>
 <g id="figure_1">
  <g id="patch_1">
   <path d="M 0 503.394375 
L 616.932812 503.394375 
L 616.932812 0 
L 0 0 
z
" style="fill: #ffffff"/>
  </g>
  <g id="axes_1">
   <g id="patch_2">
    <path d="M 43.78125 465.838125 
L 601.78125 465.838125 
L 601.78125 22.318125 
L 43.78125 22.318125 
z
" style="fill: #ffffff"/>
   </g>
   <g id="line2d_1">
    <path d="M 49.36125 82.736933 
L 54.94125 85.301181 
L 60.52125 87.9183 
L 66.10125 90.589942 
L 71.68125 93.317829 
L 77.26125 96.103757 
L 82.84125 98.949597 
L 88.42125 101.857303 
L 94.00125 104.828914 
L 99.58125 107.866562 
L 105.16125 110.972471 
L 110.74125 114.148969 
L 116.32125 117.39849 
L 121.90125 120.723581 
L 127.48125 124.12691 
L 133.06125 127.61127 
L 138.64125 131.179591 
L 144.22125 134.834944 
L 149.80125 138.580552 
L 155.38125 142.419801 
L 160.96125 146.356246 
L 166.54125 150.393626 
L 172.12125 154.535872 
L 177.70125 158.787125 
L 183.28125 163.151745 
L 188.86125 167.634328 
L 194.44125 172.239721 
L 200.02125 176.973041 
L 205.60125 181.839695 
L 211.18125 186.845395 
L 216.76125 191.996189 
L 222.34125 197.298476 
L 227.92125 202.759041 
L 233.50125 208.385077 
L 239.08125 214.184222 
L 244.66125 220.164591 
L 250.24125 226.334812 
L 255.82125 232.704073 
L 261.40125 239.282162 
L 266.98125 246.07952 
L 272.56125 253.107298 
L 278.14125 260.377413 
L 283.72125 267.902619 
L 289.30125 275.696583 
L 294.88125 283.773964 
L 300.46125 292.150507 
L 306.04125 300.843146 
L 311.62125 309.870117 
L 317.20125 319.251087 
L 322.78125 329.007296 
L 328.36125 339.161717 
L 333.94125 349.73924 
L 339.52125 360.766869 
L 345.10125 372.273961 
L 350.68125 384.292479 
L 356.26125 396.857294 
L 361.84125 410.006518 
L 367.42125 423.781896 
L 373.00125 438.229244 
L 378.58125 453.398959 
L 384.16125 469.346608 
L 389.74125 486.133607 
L 395.32125 503.828011 
L 395.490455 504.394375 
" clip-path="url(#p6427b5f8c4)" style="fill: none; stroke-dasharray: 5.55,2.4; stroke-dashoffset: 0; stroke: #000000; stroke-width: 1.5"/>
   </g>
   <g id="line2d_2">
    <path d="M 43.78125 435.628721 
L 601.78125 435.628721 
" clip-path="url(#p6427b5f8c4)" style="fill: none; stroke-dasharray: 1.5,2.475; stroke-dashoffset: 0; stroke: #000000; stroke-width: 1.5"/>
   </g>
   <g id="matplotlib.axis_1">
    <g id="xtick_1">
     <g id="line2d_3">
      <path d="M 43.78125 465.838125 
L 43.78125 22.318125 
" clip-path="url(#p6427b5f8c4)" style="fill: none; stroke: #b0b0b0; stroke-width: 0.8; stroke-linecap: square"/>
     </g>
     <g id="line2d_4">
      <defs>
       <path id="mbcc182abe6" d="M 0 0 
L 0 3.5 
" style="stroke: #000000; stroke-width: 0.8"/>
      </defs>
      <g>
       <use xlink:href="#mbcc182abe6" x="43.78125" y="465.838125" style="stroke: #000000; stroke-width: 0.8"/>
      </g>
     </g>
     <g id="text_1">
      <!-- 0.0 -->
      <g transform="translate(35.829688 480.436562) scale(0.1 -0.1)">
       <defs>
        <path id="DejaVuSans-30" d="M 2034 4250 
Q 1547 4250 1301 3770 
Q 1056 3291 1056 2328 
Q 1056 1369 1301 889 
Q 1547 409 2034 409 
Q 2525 409 2770 889 
Q 3016 1369 3016 2328 
Q 3016 3291 2770 3770 
Q 2525 4250 2034 4250 
z
M 2034 4750 
Q 2819 4750 3233 4129 
Q 3647 3509 3647 2328 
Q 3647 1150 3233 529 
Q 2819 -91 2034 -91 
Q 1250 -91 836 529 
Q 422 1150 422 2328 
Q 422 3509 836 4129 
Q 1250 4750 2034 4750 
z
" transform="scale(0.015625)"/>
        <path id="DejaVuSans-2e" d="M 684 794 
L 1344 794 
L 1344 0 
L 684 0 
L 684 794 
z
" transform="scale(0.015625)"/>
       </defs>
       <use xlink:href="#DejaVuSans-30"/>
       <use xlink:href="#DejaVuSans-2e" x="63.623047"/>
       <use xlink:href="#DejaVuSans-30" x="95.410156"/>
      </g>
     </g>
    </g>
    <g id="xtick_2">
     <g id="line2d_5">
      <path d="M 155.38125 465.838125 
L 155.38125 22.318125 
" clip-path="url(#p6427b5f8c4)" style="fill: none; stroke: #b0b0b0; stroke-width: 0.8; stroke-linecap: square"/>
     </g>
     <g id="line2d_6">
      <g>
       <use xlink:href="#mbcc182abe6" x="155.38125" y="465.838125" style="stroke: #000000; stroke-width: 0.8"/>
      </g>
     </g>
     <g id="text_2">
      <!-- 0.2 -->
      <g transform="translate(147.429688 480.436562) scale(0.1 -0.1)">
       <defs>
        <path id="DejaVuSans-32" d="M 1228 531 
L 3431 531 
L 3431 0 
L 469 0 
L 469 531 
Q 828 903 1448 1529 
Q 2069 2156 2228 2338 
Q 2531 2678 2651 2914 
Q 2772 3150 2772 3378 
Q 2772 3750 2511 3984 
Q 2250 4219 1831 4219 
Q 1534 4219 1204 4116 
Q 875 4013 500 3803 
L 500 4441 
Q 881 4594 1212 4672 
Q 1544 4750 1819 4750 
Q 2544 4750 2975 4387 
Q 3406 4025 3406 3419 
Q 3406 3131 3298 2873 
Q 3191 2616 2906 2266 
Q 2828 2175 2409 1742 
Q 1991 1309 1228 531 
z
" transform="scale(0.015625)"/>
       </defs>
       <use xlink:href="#DejaVuSans-30"/>
       <use xlink:href="#DejaVuSans-2e" x="63.623047"/>
       <use xlink:href="#DejaVuSans-32" x="95.410156"/>
      </g>
     </g>
    </g>
    <g id="xtick_3">
     <g id="line2d_7">
      <path d="M 266.98125 465.838125 
L 266.98125 22.318125 
" clip-path="url(#p6427b5f8c4)" style="fill: none; stroke: #b0b0b0; stroke-width: 0.8; stroke-linecap: square"/>
     </g>
     <g id="line2d_8">
      <g>
       <use xlink:href="#mbcc182abe6" x="266.98125" y="465.838125" style="stroke: #000000; stroke-width: 0.8"/>
      </g>
     </g>
     <g id="text_3">
      <!-- 0.4 -->
      <g transform="translate(259.029688 480.436562) scale(0.1 -0.1)">
       <defs>
        <path id="DejaVuSans-34" d="M 2419 4116 
L 825 1625 
L 2419 1625 
L 2419 4116 
z
M 2253 4666 
L 3047 4666 
L 3047 1625 
L 3713 1625 
L 3713 1100 
L 3047 1100 
L 3047 0 
L 2419 0 
L 2419 1100 
L 313 1100 
L 313 1709 
L 2253 4666 
z
" transform="scale(0.015625)"/>
       </defs>
       <use xlink:href="#DejaVuSans-30"/>
       <use xlink:href="#DejaVuSans-2e" x="63.623047"/>
       <use xlink:href="#DejaVuSans-34" x="95.410156"/>
      </g>
     </g>
    </g>
    <g id="xtick_4">
     <g id="line2d_9">
      <path d="M 378.58125 465.838125 
L 378.58125 22.318125 
" clip-path="url(#p6427b5f8c4)" style="fill: none; stroke: #b0b0b0; stroke-width: 0.8; stroke-linecap: square"/>
     </g>
     <g id="line2d_10">
      <g>
       <use xlink:href="#mbcc182abe6" x="378.58125" y="465.838125" style="stroke: #000000; stroke-width: 0.8"/>
      </g>
     </g>
     <g id="text_4">
      <!-- 0.6 -->
      <g transform="translate(370.629688 480.436562) scale(0.1 -0.1)">
       <defs>
        <path id="DejaVuSans-36" d="M 2113 2584 
Q 1688 2584 1439 2293 
Q 1191 2003 1191 1497 
Q 1191 994 1439 701 
Q 1688 409 2113 409 
Q 2538 409 2786 701 
Q 3034 994 3034 1497 
Q 3034 2003 2786 2293 
Q 2538 2584 2113 2584 
z
M 3366 4563 
L 3366 3988 
Q 3128 4100 2886 4159 
Q 2644 4219 2406 4219 
Q 1781 4219 1451 3797 
Q 1122 3375 1075 2522 
Q 1259 2794 1537 2939 
Q 1816 3084 2150 3084 
Q 2853 3084 3261 2657 
Q 3669 2231 3669 1497 
Q 3669 778 3244 343 
Q 2819 -91 2113 -91 
Q 1303 -91 875 529 
Q 447 1150 447 2328 
Q 447 3434 972 4092 
Q 1497 4750 2381 4750 
Q 2619 4750 2861 4703 
Q 3103 4656 3366 4563 
z
" transform="scale(0.015625)"/>
       </defs>
       <use xlink:href="#DejaVuSans-30"/>
       <use xlink:href="#DejaVuSans-2e" x="63.623047"/>
       <use xlink:href="#DejaVuSans-36" x="95.410156"/>
      </g>
     </g>
    </g>
    <g id="xtick_5">
     <g id="line2d_11">
      <path d="M 490.18125 465.838125 
L 490.18125 22.318125 
" clip-path="url(#p6427b5f8c4)" style="fill: none; stroke: #b0b0b0; stroke-width: 0.8; stroke-linecap: square"/>
     </g>
     <g id="line2d_12">
      <g>
       <use xlink:href="#mbcc182abe6" x="490.18125" y="465.838125" style="stroke: #000000; stroke-width: 0.8"/>
      </g>
     </g>
     <g id="text_5">
      <!-- 0.8 -->
      <g transform="translate(482.229688 480.436562) scale(0.1 -0.1)">
       <defs>
        <path id="DejaVuSans-38" d="M 2034 2216 
Q 1584 2216 1326 1975 
Q 1069 1734 1069 1313 
Q 1069 891 1326 650 
Q 1584 409 2034 409 
Q 2484 409 2743 651 
Q 3003 894 3003 1313 
Q 3003 1734 2745 1975 
Q 2488 2216 2034 2216 
z
M 1403 2484 
Q 997 2584 770 2862 
Q 544 3141 544 3541 
Q 544 4100 942 4425 
Q 1341 4750 2034 4750 
Q 2731 4750 3128 4425 
Q 3525 4100 3525 3541 
Q 3525 3141 3298 2862 
Q 3072 2584 2669 2484 
Q 3125 2378 3379 2068 
Q 3634 1759 3634 1313 
Q 3634 634 3220 271 
Q 2806 -91 2034 -91 
Q 1263 -91 848 271 
Q 434 634 434 1313 
Q 434 1759 690 2068 
Q 947 2378 1403 2484 
z
M 1172 3481 
Q 1172 3119 1398 2916 
Q 1625 2713 2034 2713 
Q 2441 2713 2670 2916 
Q 2900 3119 2900 3481 
Q 2900 3844 2670 4047 
Q 2441 4250 2034 4250 
Q 1625 4250 1398 4047 
Q 1172 3844 1172 3481 
z
" transform="scale(0.015625)"/>
       </defs>
       <use xlink:href="#DejaVuSans-30"/>
       <use xlink:href="#DejaVuSans-2e" x="63.623047"/>
       <use xlink:href="#DejaVuSans-38" x="95.410156"/>
      </g>
     </g>
    </g>
    <g id="xtick_6">
     <g id="line2d_13">
      <path d="M 601.78125 465.838125 
L 601.78125 22.318125 
" clip-path="url(#p6427b5f8c4)" style="fill: none; stroke: #b0b0b0; stroke-width: 0.8; stroke-linecap: square"/>
     </g>
     <g id="line2d_14">
      <g>
       <use xlink:href="#mbcc182abe6" x="601.78125" y="465.838125" style="stroke: #000000; stroke-width: 0.8"/>
      </g>
     </g>
     <g id="text_6">
      <!-- 1.0 -->
      <g transform="translate(593.829687 480.436562) scale(0.1 -0.1)">
       <defs>
        <path id="DejaVuSans-31" d="M 794 531 
L 1825 531 
L 1825 4091 
L 703 3866 
L 703 4441 
L 1819 4666 
L 2450 4666 
L 2450 531 
L 3481 531 
L 3481 0 
L 794 0 
L 794 531 
z
" transform="scale(0.015625)"/>
       </defs>
       <use xlink:href="#DejaVuSans-31"/>
       <use xlink:href="#DejaVuSans-2e" x="63.623047"/>
       <use xlink:href="#DejaVuSans-30" x="95.410156"/>
      </g>
     </g>
    </g>
    <g id="text_7">
     <!-- Threshold Probability -->
     <g transform="translate(270.125 494.114687) scale(0.1 -0.1)">
      <defs>
       <path id="DejaVuSans-54" d="M -19 4666 
L 3928 4666 
L 3928 4134 
L 2272 4134 
L 2272 0 
L 1638 0 
L 1638 4134 
L -19 4134 
L -19 4666 
z
" transform="scale(0.015625)"/>
       <path id="DejaVuSans-68" d="M 3513 2113 
L 3513 0 
L 2938 0 
L 2938 2094 
Q 2938 2591 2744 2837 
Q 2550 3084 2163 3084 
Q 1697 3084 1428 2787 
Q 1159 2491 1159 1978 
L 1159 0 
L 581 0 
L 581 4863 
L 1159 4863 
L 1159 2956 
Q 1366 3272 1645 3428 
Q 1925 3584 2291 3584 
Q 2894 3584 3203 3211 
Q 3513 2838 3513 2113 
z
" transform="scale(0.015625)"/>
       <path id="DejaVuSans-72" d="M 2631 2963 
Q 2534 3019 2420 3045 
Q 2306 3072 2169 3072 
Q 1681 3072 1420 2755 
Q 1159 2438 1159 1844 
L 1159 0 
L 581 0 
L 581 3500 
L 1159 3500 
L 1159 2956 
Q 1341 3275 1631 3429 
Q 1922 3584 2338 3584 
Q 2397 3584 2469 3576 
Q 2541 3569 2628 3553 
L 2631 2963 
z
" transform="scale(0.015625)"/>
       <path id="DejaVuSans-65" d="M 3597 1894 
L 3597 1613 
L 953 1613 
Q 991 1019 1311 708 
Q 1631 397 2203 397 
Q 2534 397 2845 478 
Q 3156 559 3463 722 
L 3463 178 
Q 3153 47 2828 -22 
Q 2503 -91 2169 -91 
Q 1331 -91 842 396 
Q 353 884 353 1716 
Q 353 2575 817 3079 
Q 1281 3584 2069 3584 
Q 2775 3584 3186 3129 
Q 3597 2675 3597 1894 
z
M 3022 2063 
Q 3016 2534 2758 2815 
Q 2500 3097 2075 3097 
Q 1594 3097 1305 2825 
Q 1016 2553 972 2059 
L 3022 2063 
z
" transform="scale(0.015625)"/>
       <path id="DejaVuSans-73" d="M 2834 3397 
L 2834 2853 
Q 2591 2978 2328 3040 
Q 2066 3103 1784 3103 
Q 1356 3103 1142 2972 
Q 928 2841 928 2578 
Q 928 2378 1081 2264 
Q 1234 2150 1697 2047 
L 1894 2003 
Q 2506 1872 2764 1633 
Q 3022 1394 3022 966 
Q 3022 478 2636 193 
Q 2250 -91 1575 -91 
Q 1294 -91 989 -36 
Q 684 19 347 128 
L 347 722 
Q 666 556 975 473 
Q 1284 391 1588 391 
Q 1994 391 2212 530 
Q 2431 669 2431 922 
Q 2431 1156 2273 1281 
Q 2116 1406 1581 1522 
L 1381 1569 
Q 847 1681 609 1914 
Q 372 2147 372 2553 
Q 372 3047 722 3315 
Q 1072 3584 1716 3584 
Q 2034 3584 2315 3537 
Q 2597 3491 2834 3397 
z
" transform="scale(0.015625)"/>
       <path id="DejaVuSans-6f" d="M 1959 3097 
Q 1497 3097 1228 2736 
Q 959 2375 959 1747 
Q 959 1119 1226 758 
Q 1494 397 1959 397 
Q 2419 397 2687 759 
Q 2956 1122 2956 1747 
Q 2956 2369 2687 2733 
Q 2419 3097 1959 3097 
z
M 1959 3584 
Q 2709 3584 3137 3096 
Q 3566 2609 3566 1747 
Q 3566 888 3137 398 
Q 2709 -91 1959 -91 
Q 1206 -91 779 398 
Q 353 888 353 1747 
Q 353 2609 779 3096 
Q 1206 3584 1959 3584 
z
" transform="scale(0.015625)"/>
       <path id="DejaVuSans-6c" d="M 603 4863 
L 1178 4863 
L 1178 0 
L 603 0 
L 603 4863 
z
" transform="scale(0.015625)"/>
       <path id="DejaVuSans-64" d="M 2906 2969 
L 2906 4863 
L 3481 4863 
L 3481 0 
L 2906 0 
L 2906 525 
Q 2725 213 2448 61 
Q 2172 -91 1784 -91 
Q 1150 -91 751 415 
Q 353 922 353 1747 
Q 353 2572 751 3078 
Q 1150 3584 1784 3584 
Q 2172 3584 2448 3432 
Q 2725 3281 2906 2969 
z
M 947 1747 
Q 947 1113 1208 752 
Q 1469 391 1925 391 
Q 2381 391 2643 752 
Q 2906 1113 2906 1747 
Q 2906 2381 2643 2742 
Q 2381 3103 1925 3103 
Q 1469 3103 1208 2742 
Q 947 2381 947 1747 
z
" transform="scale(0.015625)"/>
       <path id="DejaVuSans-20" transform="scale(0.015625)"/>
       <path id="DejaVuSans-50" d="M 1259 4147 
L 1259 2394 
L 2053 2394 
Q 2494 2394 2734 2622 
Q 2975 2850 2975 3272 
Q 2975 3691 2734 3919 
Q 2494 4147 2053 4147 
L 1259 4147 
z
M 628 4666 
L 2053 4666 
Q 2838 4666 3239 4311 
Q 3641 3956 3641 3272 
Q 3641 2581 3239 2228 
Q 2838 1875 2053 1875 
L 1259 1875 
L 1259 0 
L 628 0 
L 628 4666 
z
" transform="scale(0.015625)"/>
       <path id="DejaVuSans-62" d="M 3116 1747 
Q 3116 2381 2855 2742 
Q 2594 3103 2138 3103 
Q 1681 3103 1420 2742 
Q 1159 2381 1159 1747 
Q 1159 1113 1420 752 
Q 1681 391 2138 391 
Q 2594 391 2855 752 
Q 3116 1113 3116 1747 
z
M 1159 2969 
Q 1341 3281 1617 3432 
Q 1894 3584 2278 3584 
Q 2916 3584 3314 3078 
Q 3713 2572 3713 1747 
Q 3713 922 3314 415 
Q 2916 -91 2278 -91 
Q 1894 -91 1617 61 
Q 1341 213 1159 525 
L 1159 0 
L 581 0 
L 581 4863 
L 1159 4863 
L 1159 2969 
z
" transform="scale(0.015625)"/>
       <path id="DejaVuSans-61" d="M 2194 1759 
Q 1497 1759 1228 1600 
Q 959 1441 959 1056 
Q 959 750 1161 570 
Q 1363 391 1709 391 
Q 2188 391 2477 730 
Q 2766 1069 2766 1631 
L 2766 1759 
L 2194 1759 
z
M 3341 1997 
L 3341 0 
L 2766 0 
L 2766 531 
Q 2569 213 2275 61 
Q 1981 -91 1556 -91 
Q 1019 -91 701 211 
Q 384 513 384 1019 
Q 384 1609 779 1909 
Q 1175 2209 1959 2209 
L 2766 2209 
L 2766 2266 
Q 2766 2663 2505 2880 
Q 2244 3097 1772 3097 
Q 1472 3097 1187 3025 
Q 903 2953 641 2809 
L 641 3341 
Q 956 3463 1253 3523 
Q 1550 3584 1831 3584 
Q 2591 3584 2966 3190 
Q 3341 2797 3341 1997 
z
" transform="scale(0.015625)"/>
       <path id="DejaVuSans-69" d="M 603 3500 
L 1178 3500 
L 1178 0 
L 603 0 
L 603 3500 
z
M 603 4863 
L 1178 4863 
L 1178 4134 
L 603 4134 
L 603 4863 
z
" transform="scale(0.015625)"/>
       <path id="DejaVuSans-74" d="M 1172 4494 
L 1172 3500 
L 2356 3500 
L 2356 3053 
L 1172 3053 
L 1172 1153 
Q 1172 725 1289 603 
Q 1406 481 1766 481 
L 2356 481 
L 2356 0 
L 1766 0 
Q 1100 0 847 248 
Q 594 497 594 1153 
L 594 3053 
L 172 3053 
L 172 3500 
L 594 3500 
L 594 4494 
L 1172 4494 
z
" transform="scale(0.015625)"/>
       <path id="DejaVuSans-79" d="M 2059 -325 
Q 1816 -950 1584 -1140 
Q 1353 -1331 966 -1331 
L 506 -1331 
L 506 -850 
L 844 -850 
Q 1081 -850 1212 -737 
Q 1344 -625 1503 -206 
L 1606 56 
L 191 3500 
L 800 3500 
L 1894 763 
L 2988 3500 
L 3597 3500 
L 2059 -325 
z
" transform="scale(0.015625)"/>
      </defs>
      <use xlink:href="#DejaVuSans-54"/>
      <use xlink:href="#DejaVuSans-68" x="61.083984"/>
      <use xlink:href="#DejaVuSans-72" x="124.462891"/>
      <use xlink:href="#DejaVuSans-65" x="163.326172"/>
      <use xlink:href="#DejaVuSans-73" x="224.849609"/>
      <use xlink:href="#DejaVuSans-68" x="276.949219"/>
      <use xlink:href="#DejaVuSans-6f" x="340.328125"/>
      <use xlink:href="#DejaVuSans-6c" x="401.509766"/>
      <use xlink:href="#DejaVuSans-64" x="429.292969"/>
      <use xlink:href="#DejaVuSans-20" x="492.769531"/>
      <use xlink:href="#DejaVuSans-50" x="524.556641"/>
      <use xlink:href="#DejaVuSans-72" x="583.109375"/>
      <use xlink:href="#DejaVuSans-6f" x="621.972656"/>
      <use xlink:href="#DejaVuSans-62" x="683.154297"/>
      <use xlink:href="#DejaVuSans-61" x="746.630859"/>
      <use xlink:href="#DejaVuSans-62" x="807.910156"/>
      <use xlink:href="#DejaVuSans-69" x="871.386719"/>
      <use xlink:href="#DejaVuSans-6c" x="899.169922"/>
      <use xlink:href="#DejaVuSans-69" x="926.953125"/>
      <use xlink:href="#DejaVuSans-74" x="954.736328"/>
      <use xlink:href="#DejaVuSans-79" x="993.945312"/>
     </g>
    </g>
   </g>
   <g id="matplotlib.axis_2">
    <g id="ytick_1">
     <g id="line2d_15">
      <path d="M 43.78125 435.628721 
L 601.78125 435.628721 
" clip-path="url(#p6427b5f8c4)" style="fill: none; stroke: #b0b0b0; stroke-width: 0.8; stroke-linecap: square"/>
     </g>
     <g id="line2d_16">
      <defs>
       <path id="m325b73d298" d="M 0 0 
L -3.5 0 
" style="stroke: #000000; stroke-width: 0.8"/>
      </defs>
      <g>
       <use xlink:href="#m325b73d298" x="43.78125" y="435.628721" style="stroke: #000000; stroke-width: 0.8"/>
      </g>
     </g>
     <g id="text_8">
      <!-- 0.0 -->
      <g transform="translate(20.878125 439.42794) scale(0.1 -0.1)">
       <use xlink:href="#DejaVuSans-30"/>
       <use xlink:href="#DejaVuSans-2e" x="63.623047"/>
       <use xlink:href="#DejaVuSans-30" x="95.410156"/>
      </g>
     </g>
    </g>
    <g id="ytick_2">
     <g id="line2d_17">
      <path d="M 43.78125 375.209913 
L 601.78125 375.209913 
" clip-path="url(#p6427b5f8c4)" style="fill: none; stroke: #b0b0b0; stroke-width: 0.8; stroke-linecap: square"/>
     </g>
     <g id="line2d_18">
      <g>
       <use xlink:href="#m325b73d298" x="43.78125" y="375.209913" style="stroke: #000000; stroke-width: 0.8"/>
      </g>
     </g>
     <g id="text_9">
      <!-- 0.1 -->
      <g transform="translate(20.878125 379.009132) scale(0.1 -0.1)">
       <use xlink:href="#DejaVuSans-30"/>
       <use xlink:href="#DejaVuSans-2e" x="63.623047"/>
       <use xlink:href="#DejaVuSans-31" x="95.410156"/>
      </g>
     </g>
    </g>
    <g id="ytick_3">
     <g id="line2d_19">
      <path d="M 43.78125 314.791106 
L 601.78125 314.791106 
" clip-path="url(#p6427b5f8c4)" style="fill: none; stroke: #b0b0b0; stroke-width: 0.8; stroke-linecap: square"/>
     </g>
     <g id="line2d_20">
      <g>
       <use xlink:href="#m325b73d298" x="43.78125" y="314.791106" style="stroke: #000000; stroke-width: 0.8"/>
      </g>
     </g>
     <g id="text_10">
      <!-- 0.2 -->
      <g transform="translate(20.878125 318.590324) scale(0.1 -0.1)">
       <use xlink:href="#DejaVuSans-30"/>
       <use xlink:href="#DejaVuSans-2e" x="63.623047"/>
       <use xlink:href="#DejaVuSans-32" x="95.410156"/>
      </g>
     </g>
    </g>
    <g id="ytick_4">
     <g id="line2d_21">
      <path d="M 43.78125 254.372298 
L 601.78125 254.372298 
" clip-path="url(#p6427b5f8c4)" style="fill: none; stroke: #b0b0b0; stroke-width: 0.8; stroke-linecap: square"/>
     </g>
     <g id="line2d_22">
      <g>
       <use xlink:href="#m325b73d298" x="43.78125" y="254.372298" style="stroke: #000000; stroke-width: 0.8"/>
      </g>
     </g>
     <g id="text_11">
      <!-- 0.3 -->
      <g transform="translate(20.878125 258.171517) scale(0.1 -0.1)">
       <defs>
        <path id="DejaVuSans-33" d="M 2597 2516 
Q 3050 2419 3304 2112 
Q 3559 1806 3559 1356 
Q 3559 666 3084 287 
Q 2609 -91 1734 -91 
Q 1441 -91 1130 -33 
Q 819 25 488 141 
L 488 750 
Q 750 597 1062 519 
Q 1375 441 1716 441 
Q 2309 441 2620 675 
Q 2931 909 2931 1356 
Q 2931 1769 2642 2001 
Q 2353 2234 1838 2234 
L 1294 2234 
L 1294 2753 
L 1863 2753 
Q 2328 2753 2575 2939 
Q 2822 3125 2822 3475 
Q 2822 3834 2567 4026 
Q 2313 4219 1838 4219 
Q 1578 4219 1281 4162 
Q 984 4106 628 3988 
L 628 4550 
Q 988 4650 1302 4700 
Q 1616 4750 1894 4750 
Q 2613 4750 3031 4423 
Q 3450 4097 3450 3541 
Q 3450 3153 3228 2886 
Q 3006 2619 2597 2516 
z
" transform="scale(0.015625)"/>
       </defs>
       <use xlink:href="#DejaVuSans-30"/>
       <use xlink:href="#DejaVuSans-2e" x="63.623047"/>
       <use xlink:href="#DejaVuSans-33" x="95.410156"/>
      </g>
     </g>
    </g>
    <g id="ytick_5">
     <g id="line2d_23">
      <path d="M 43.78125 193.95349 
L 601.78125 193.95349 
" clip-path="url(#p6427b5f8c4)" style="fill: none; stroke: #b0b0b0; stroke-width: 0.8; stroke-linecap: square"/>
     </g>
     <g id="line2d_24">
      <g>
       <use xlink:href="#m325b73d298" x="43.78125" y="193.95349" style="stroke: #000000; stroke-width: 0.8"/>
      </g>
     </g>
     <g id="text_12">
      <!-- 0.4 -->
      <g transform="translate(20.878125 197.752709) scale(0.1 -0.1)">
       <use xlink:href="#DejaVuSans-30"/>
       <use xlink:href="#DejaVuSans-2e" x="63.623047"/>
       <use xlink:href="#DejaVuSans-34" x="95.410156"/>
      </g>
     </g>
    </g>
    <g id="ytick_6">
     <g id="line2d_25">
      <path d="M 43.78125 133.534683 
L 601.78125 133.534683 
" clip-path="url(#p6427b5f8c4)" style="fill: none; stroke: #b0b0b0; stroke-width: 0.8; stroke-linecap: square"/>
     </g>
     <g id="line2d_26">
      <g>
       <use xlink:href="#m325b73d298" x="43.78125" y="133.534683" style="stroke: #000000; stroke-width: 0.8"/>
      </g>
     </g>
     <g id="text_13">
      <!-- 0.5 -->
      <g transform="translate(20.878125 137.333901) scale(0.1 -0.1)">
       <defs>
        <path id="DejaVuSans-35" d="M 691 4666 
L 3169 4666 
L 3169 4134 
L 1269 4134 
L 1269 2991 
Q 1406 3038 1543 3061 
Q 1681 3084 1819 3084 
Q 2600 3084 3056 2656 
Q 3513 2228 3513 1497 
Q 3513 744 3044 326 
Q 2575 -91 1722 -91 
Q 1428 -91 1123 -41 
Q 819 9 494 109 
L 494 744 
Q 775 591 1075 516 
Q 1375 441 1709 441 
Q 2250 441 2565 725 
Q 2881 1009 2881 1497 
Q 2881 1984 2565 2268 
Q 2250 2553 1709 2553 
Q 1456 2553 1204 2497 
Q 953 2441 691 2322 
L 691 4666 
z
" transform="scale(0.015625)"/>
       </defs>
       <use xlink:href="#DejaVuSans-30"/>
       <use xlink:href="#DejaVuSans-2e" x="63.623047"/>
       <use xlink:href="#DejaVuSans-35" x="95.410156"/>
      </g>
     </g>
    </g>
    <g id="ytick_7">
     <g id="line2d_27">
      <path d="M 43.78125 73.115875 
L 601.78125 73.115875 
" clip-path="url(#p6427b5f8c4)" style="fill: none; stroke: #b0b0b0; stroke-width: 0.8; stroke-linecap: square"/>
     </g>
     <g id="line2d_28">
      <g>
       <use xlink:href="#m325b73d298" x="43.78125" y="73.115875" style="stroke: #000000; stroke-width: 0.8"/>
      </g>
     </g>
     <g id="text_14">
      <!-- 0.6 -->
      <g transform="translate(20.878125 76.915094) scale(0.1 -0.1)">
       <use xlink:href="#DejaVuSans-30"/>
       <use xlink:href="#DejaVuSans-2e" x="63.623047"/>
       <use xlink:href="#DejaVuSans-36" x="95.410156"/>
      </g>
     </g>
    </g>
    <g id="text_15">
     <!-- Net Benefit -->
     <g transform="translate(14.798438 272.30625) rotate(-90) scale(0.1 -0.1)">
      <defs>
       <path id="DejaVuSans-4e" d="M 628 4666 
L 1478 4666 
L 3547 763 
L 3547 4666 
L 4159 4666 
L 4159 0 
L 3309 0 
L 1241 3903 
L 1241 0 
L 628 0 
L 628 4666 
z
" transform="scale(0.015625)"/>
       <path id="DejaVuSans-42" d="M 1259 2228 
L 1259 519 
L 2272 519 
Q 2781 519 3026 730 
Q 3272 941 3272 1375 
Q 3272 1813 3026 2020 
Q 2781 2228 2272 2228 
L 1259 2228 
z
M 1259 4147 
L 1259 2741 
L 2194 2741 
Q 2656 2741 2882 2914 
Q 3109 3088 3109 3444 
Q 3109 3797 2882 3972 
Q 2656 4147 2194 4147 
L 1259 4147 
z
M 628 4666 
L 2241 4666 
Q 2963 4666 3353 4366 
Q 3744 4066 3744 3513 
Q 3744 3084 3544 2831 
Q 3344 2578 2956 2516 
Q 3422 2416 3680 2098 
Q 3938 1781 3938 1306 
Q 3938 681 3513 340 
Q 3088 0 2303 0 
L 628 0 
L 628 4666 
z
" transform="scale(0.015625)"/>
       <path id="DejaVuSans-6e" d="M 3513 2113 
L 3513 0 
L 2938 0 
L 2938 2094 
Q 2938 2591 2744 2837 
Q 2550 3084 2163 3084 
Q 1697 3084 1428 2787 
Q 1159 2491 1159 1978 
L 1159 0 
L 581 0 
L 581 3500 
L 1159 3500 
L 1159 2956 
Q 1366 3272 1645 3428 
Q 1925 3584 2291 3584 
Q 2894 3584 3203 3211 
Q 3513 2838 3513 2113 
z
" transform="scale(0.015625)"/>
       <path id="DejaVuSans-66" d="M 2375 4863 
L 2375 4384 
L 1825 4384 
Q 1516 4384 1395 4259 
Q 1275 4134 1275 3809 
L 1275 3500 
L 2222 3500 
L 2222 3053 
L 1275 3053 
L 1275 0 
L 697 0 
L 697 3053 
L 147 3053 
L 147 3500 
L 697 3500 
L 697 3744 
Q 697 4328 969 4595 
Q 1241 4863 1831 4863 
L 2375 4863 
z
" transform="scale(0.015625)"/>
      </defs>
      <use xlink:href="#DejaVuSans-4e"/>
      <use xlink:href="#DejaVuSans-65" x="74.804688"/>
      <use xlink:href="#DejaVuSans-74" x="136.328125"/>
      <use xlink:href="#DejaVuSans-20" x="175.537109"/>
      <use xlink:href="#DejaVuSans-42" x="207.324219"/>
      <use xlink:href="#DejaVuSans-65" x="275.927734"/>
      <use xlink:href="#DejaVuSans-6e" x="337.451172"/>
      <use xlink:href="#DejaVuSans-65" x="400.830078"/>
      <use xlink:href="#DejaVuSans-66" x="462.353516"/>
      <use xlink:href="#DejaVuSans-69" x="497.558594"/>
      <use xlink:href="#DejaVuSans-74" x="525.341797"/>
     </g>
    </g>
   </g>
   <g id="patch_3">
    <path d="M 43.78125 465.838125 
L 43.78125 22.318125 
" style="fill: none; stroke: #000000; stroke-width: 0.8; stroke-linejoin: miter; stroke-linecap: square"/>
   </g>
   <g id="patch_4">
    <path d="M 601.78125 465.838125 
L 601.78125 22.318125 
" style="fill: none; stroke: #000000; stroke-width: 0.8; stroke-linejoin: miter; stroke-linecap: square"/>
   </g>
   <g id="patch_5">
    <path d="M 43.78125 465.838125 
L 601.78125 465.838125 
" style="fill: none; stroke: #000000; stroke-width: 0.8; stroke-linejoin: miter; stroke-linecap: square"/>
   </g>
   <g id="patch_6">
    <path d="M 43.78125 22.318125 
L 601.78125 22.318125 
" style="fill: none; stroke: #000000; stroke-width: 0.8; stroke-linejoin: miter; stroke-linecap: square"/>
   </g>
   <g id="text_16">
    <!-- Decision Curve Analysis For Eight Machine Learning Models -->
    <g transform="translate(144.366563 16.318125) scale(0.12 -0.12)">
     <defs>
      <path id="DejaVuSans-44" d="M 1259 4147 
L 1259 519 
L 2022 519 
Q 2988 519 3436 956 
Q 3884 1394 3884 2338 
Q 3884 3275 3436 3711 
Q 2988 4147 2022 4147 
L 1259 4147 
z
M 628 4666 
L 1925 4666 
Q 3281 4666 3915 4102 
Q 4550 3538 4550 2338 
Q 4550 1131 3912 565 
Q 3275 0 1925 0 
L 628 0 
L 628 4666 
z
" transform="scale(0.015625)"/>
      <path id="DejaVuSans-63" d="M 3122 3366 
L 3122 2828 
Q 2878 2963 2633 3030 
Q 2388 3097 2138 3097 
Q 1578 3097 1268 2742 
Q 959 2388 959 1747 
Q 959 1106 1268 751 
Q 1578 397 2138 397 
Q 2388 397 2633 464 
Q 2878 531 3122 666 
L 3122 134 
Q 2881 22 2623 -34 
Q 2366 -91 2075 -91 
Q 1284 -91 818 406 
Q 353 903 353 1747 
Q 353 2603 823 3093 
Q 1294 3584 2113 3584 
Q 2378 3584 2631 3529 
Q 2884 3475 3122 3366 
z
" transform="scale(0.015625)"/>
      <path id="DejaVuSans-43" d="M 4122 4306 
L 4122 3641 
Q 3803 3938 3442 4084 
Q 3081 4231 2675 4231 
Q 1875 4231 1450 3742 
Q 1025 3253 1025 2328 
Q 1025 1406 1450 917 
Q 1875 428 2675 428 
Q 3081 428 3442 575 
Q 3803 722 4122 1019 
L 4122 359 
Q 3791 134 3420 21 
Q 3050 -91 2638 -91 
Q 1578 -91 968 557 
Q 359 1206 359 2328 
Q 359 3453 968 4101 
Q 1578 4750 2638 4750 
Q 3056 4750 3426 4639 
Q 3797 4528 4122 4306 
z
" transform="scale(0.015625)"/>
      <path id="DejaVuSans-75" d="M 544 1381 
L 544 3500 
L 1119 3500 
L 1119 1403 
Q 1119 906 1312 657 
Q 1506 409 1894 409 
Q 2359 409 2629 706 
Q 2900 1003 2900 1516 
L 2900 3500 
L 3475 3500 
L 3475 0 
L 2900 0 
L 2900 538 
Q 2691 219 2414 64 
Q 2138 -91 1772 -91 
Q 1169 -91 856 284 
Q 544 659 544 1381 
z
M 1991 3584 
L 1991 3584 
z
" transform="scale(0.015625)"/>
      <path id="DejaVuSans-76" d="M 191 3500 
L 800 3500 
L 1894 563 
L 2988 3500 
L 3597 3500 
L 2284 0 
L 1503 0 
L 191 3500 
z
" transform="scale(0.015625)"/>
      <path id="DejaVuSans-41" d="M 2188 4044 
L 1331 1722 
L 3047 1722 
L 2188 4044 
z
M 1831 4666 
L 2547 4666 
L 4325 0 
L 3669 0 
L 3244 1197 
L 1141 1197 
L 716 0 
L 50 0 
L 1831 4666 
z
" transform="scale(0.015625)"/>
      <path id="DejaVuSans-46" d="M 628 4666 
L 3309 4666 
L 3309 4134 
L 1259 4134 
L 1259 2759 
L 3109 2759 
L 3109 2228 
L 1259 2228 
L 1259 0 
L 628 0 
L 628 4666 
z
" transform="scale(0.015625)"/>
      <path id="DejaVuSans-45" d="M 628 4666 
L 3578 4666 
L 3578 4134 
L 1259 4134 
L 1259 2753 
L 3481 2753 
L 3481 2222 
L 1259 2222 
L 1259 531 
L 3634 531 
L 3634 0 
L 628 0 
L 628 4666 
z
" transform="scale(0.015625)"/>
      <path id="DejaVuSans-67" d="M 2906 1791 
Q 2906 2416 2648 2759 
Q 2391 3103 1925 3103 
Q 1463 3103 1205 2759 
Q 947 2416 947 1791 
Q 947 1169 1205 825 
Q 1463 481 1925 481 
Q 2391 481 2648 825 
Q 2906 1169 2906 1791 
z
M 3481 434 
Q 3481 -459 3084 -895 
Q 2688 -1331 1869 -1331 
Q 1566 -1331 1297 -1286 
Q 1028 -1241 775 -1147 
L 775 -588 
Q 1028 -725 1275 -790 
Q 1522 -856 1778 -856 
Q 2344 -856 2625 -561 
Q 2906 -266 2906 331 
L 2906 616 
Q 2728 306 2450 153 
Q 2172 0 1784 0 
Q 1141 0 747 490 
Q 353 981 353 1791 
Q 353 2603 747 3093 
Q 1141 3584 1784 3584 
Q 2172 3584 2450 3431 
Q 2728 3278 2906 2969 
L 2906 3500 
L 3481 3500 
L 3481 434 
z
" transform="scale(0.015625)"/>
      <path id="DejaVuSans-4d" d="M 628 4666 
L 1569 4666 
L 2759 1491 
L 3956 4666 
L 4897 4666 
L 4897 0 
L 4281 0 
L 4281 4097 
L 3078 897 
L 2444 897 
L 1241 4097 
L 1241 0 
L 628 0 
L 628 4666 
z
" transform="scale(0.015625)"/>
      <path id="DejaVuSans-4c" d="M 628 4666 
L 1259 4666 
L 1259 531 
L 3531 531 
L 3531 0 
L 628 0 
L 628 4666 
z
" transform="scale(0.015625)"/>
     </defs>
     <use xlink:href="#DejaVuSans-44"/>
     <use xlink:href="#DejaVuSans-65" x="77.001953"/>
     <use xlink:href="#DejaVuSans-63" x="138.525391"/>
     <use xlink:href="#DejaVuSans-69" x="193.505859"/>
     <use xlink:href="#DejaVuSans-73" x="221.289062"/>
     <use xlink:href="#DejaVuSans-69" x="273.388672"/>
     <use xlink:href="#DejaVuSans-6f" x="301.171875"/>
     <use xlink:href="#DejaVuSans-6e" x="362.353516"/>
     <use xlink:href="#DejaVuSans-20" x="425.732422"/>
     <use xlink:href="#DejaVuSans-43" x="457.519531"/>
     <use xlink:href="#DejaVuSans-75" x="527.34375"/>
     <use xlink:href="#DejaVuSans-72" x="590.722656"/>
     <use xlink:href="#DejaVuSans-76" x="631.835938"/>
     <use xlink:href="#DejaVuSans-65" x="691.015625"/>
     <use xlink:href="#DejaVuSans-20" x="752.539062"/>
     <use xlink:href="#DejaVuSans-41" x="784.326172"/>
     <use xlink:href="#DejaVuSans-6e" x="852.734375"/>
     <use xlink:href="#DejaVuSans-61" x="916.113281"/>
     <use xlink:href="#DejaVuSans-6c" x="977.392578"/>
     <use xlink:href="#DejaVuSans-79" x="1005.175781"/>
     <use xlink:href="#DejaVuSans-73" x="1064.355469"/>
     <use xlink:href="#DejaVuSans-69" x="1116.455078"/>
     <use xlink:href="#DejaVuSans-73" x="1144.238281"/>
     <use xlink:href="#DejaVuSans-20" x="1196.337891"/>
     <use xlink:href="#DejaVuSans-46" x="1228.125"/>
     <use xlink:href="#DejaVuSans-6f" x="1282.019531"/>
     <use xlink:href="#DejaVuSans-72" x="1343.201172"/>
     <use xlink:href="#DejaVuSans-20" x="1384.314453"/>
     <use xlink:href="#DejaVuSans-45" x="1416.101562"/>
     <use xlink:href="#DejaVuSans-69" x="1479.285156"/>
     <use xlink:href="#DejaVuSans-67" x="1507.068359"/>
     <use xlink:href="#DejaVuSans-68" x="1570.544922"/>
     <use xlink:href="#DejaVuSans-74" x="1633.923828"/>
     <use xlink:href="#DejaVuSans-20" x="1673.132812"/>
     <use xlink:href="#DejaVuSans-4d" x="1704.919922"/>
     <use xlink:href="#DejaVuSans-61" x="1791.199219"/>
     <use xlink:href="#DejaVuSans-63" x="1852.478516"/>
     <use xlink:href="#DejaVuSans-68" x="1907.458984"/>
     <use xlink:href="#DejaVuSans-69" x="1970.837891"/>
     <use xlink:href="#DejaVuSans-6e" x="1998.621094"/>
     <use xlink:href="#DejaVuSans-65" x="2062"/>
     <use xlink:href="#DejaVuSans-20" x="2123.523438"/>
     <use xlink:href="#DejaVuSans-4c" x="2155.310547"/>
     <use xlink:href="#DejaVuSans-65" x="2209.273438"/>
     <use xlink:href="#DejaVuSans-61" x="2270.796875"/>
     <use xlink:href="#DejaVuSans-72" x="2332.076172"/>
     <use xlink:href="#DejaVuSans-6e" x="2371.439453"/>
     <use xlink:href="#DejaVuSans-69" x="2434.818359"/>
     <use xlink:href="#DejaVuSans-6e" x="2462.601562"/>
     <use xlink:href="#DejaVuSans-67" x="2525.980469"/>
     <use xlink:href="#DejaVuSans-20" x="2589.457031"/>
     <use xlink:href="#DejaVuSans-4d" x="2621.244141"/>
     <use xlink:href="#DejaVuSans-6f" x="2707.523438"/>
     <use xlink:href="#DejaVuSans-64" x="2768.705078"/>
     <use xlink:href="#DejaVuSans-65" x="2832.181641"/>
     <use xlink:href="#DejaVuSans-6c" x="2893.705078"/>
     <use xlink:href="#DejaVuSans-73" x="2921.488281"/>
    </g>
   </g>
   <g id="line2d_29">
    <path d="M 49.36125 82.736933 
L 54.94125 85.301181 
L 60.52125 87.9183 
L 66.10125 90.589942 
L 71.68125 93.317829 
L 77.26125 96.103757 
L 82.84125 98.949597 
L 88.42125 101.857303 
L 94.00125 104.828914 
L 99.58125 107.866562 
L 105.16125 110.972471 
L 110.74125 113.341231 
L 116.32125 115.628275 
L 121.90125 118.795028 
L 127.48125 122.036294 
L 133.06125 125.354732 
L 138.64125 128.753133 
L 144.22125 132.234421 
L 149.80125 143.480165 
L 155.38125 146.862361 
L 160.96125 145.606447 
L 166.54125 148.874802 
L 172.12125 150.458718 
L 177.70125 150.057886 
L 183.28125 149.330449 
L 188.86125 150.344367 
L 194.44125 157.14719 
L 200.02125 160.190039 
L 205.60125 160.89918 
L 211.18125 175.844772 
L 216.76125 173.710872 
L 222.34125 176.74075 
L 227.92125 174.02607 
L 233.50125 179.844999 
L 239.08125 182.744571 
L 244.66125 185.734755 
L 250.24125 188.819866 
L 255.82125 197.927909 
L 261.40125 201.216953 
L 266.98125 204.615633 
L 272.56125 204.013252 
L 278.14125 207.475211 
L 283.72125 211.058643 
L 289.30125 214.770054 
L 294.88125 218.616426 
L 300.46125 222.605256 
L 306.04125 226.744608 
L 311.62125 231.043166 
L 317.20125 235.510294 
L 322.78125 246.07952 
L 328.36125 250.914959 
L 333.94125 255.458257 
L 339.52125 253.767354 
L 345.10125 250.715235 
L 350.68125 253.977404 
L 356.26125 258.464838 
L 361.84125 253.380471 
L 367.42125 255.38774 
L 373.00125 265.438966 
L 378.58125 252.002933 
L 384.16125 261.723405 
L 389.74125 265.720309 
L 395.32125 281.780088 
L 400.90125 292.150507 
L 406.48125 302.77504 
L 412.06125 314.024546 
L 417.64125 330.622772 
L 423.22125 310.496632 
L 428.80125 320.599872 
L 434.38125 311.237058 
L 439.96125 315.32217 
L 445.54125 325.622489 
L 451.12125 342.170435 
L 456.70125 330.374237 
L 462.28125 329.007296 
L 467.86125 338.87965 
L 473.44125 343.171978 
L 479.02125 359.701342 
L 484.60125 376.676663 
L 490.18125 346.777533 
L 495.76125 324.642676 
L 501.34125 350.068318 
L 506.92125 352.004074 
L 512.50125 366.028624 
L 518.08125 374.420125 
L 523.66125 389.087623 
L 529.24125 392.342245 
L 534.82125 396.139304 
L 540.40125 412.473563 
L 545.98125 441.552134 
L 551.56125 394.164833 
L 557.14125 400.088246 
L 562.72125 411.935071 
L 568.30125 429.705309 
L 573.88125 429.705309 
L 579.46125 435.628721 
L 585.04125 435.628721 
L 590.62125 435.628721 
L 596.20125 435.628721 
" clip-path="url(#p6427b5f8c4)" style="fill: none; stroke: #add8e6; stroke-width: 1.5; stroke-linecap: square"/>
   </g>
   <g id="line2d_30">
    <path d="M 49.36125 82.736933 
L 54.94125 85.301181 
L 60.52125 87.9183 
L 66.10125 90.343133 
L 71.68125 93.006071 
L 77.26125 95.347576 
L 82.84125 98.0579 
L 88.42125 100.827144 
L 94.00125 103.071418 
L 99.58125 104.575777 
L 105.16125 106.579828 
L 110.74125 115.225953 
L 116.32125 118.011257 
L 121.90125 120.861335 
L 127.48125 123.778474 
L 133.06125 126.765068 
L 138.64125 128.6104 
L 144.22125 130.356266 
L 149.80125 137.922396 
L 155.38125 140.938948 
L 160.96125 140.882713 
L 166.54125 143.862684 
L 172.12125 146.920056 
L 177.70125 154.110747 
L 183.28125 163.151745 
L 188.86125 164.272391 
L 194.44125 167.452305 
L 200.02125 166.113451 
L 205.60125 172.746005 
L 211.18125 175.844772 
L 216.76125 176.372115 
L 222.34125 176.74075 
L 227.92125 179.861073 
L 233.50125 180.024496 
L 239.08125 183.200218 
L 244.66125 186.475182 
L 250.24125 189.854113 
L 255.82125 195.634975 
L 261.40125 195.293541 
L 266.98125 194.743279 
L 272.56125 198.089839 
L 278.14125 201.551799 
L 283.72125 200.666691 
L 289.30125 204.192532 
L 294.88125 213.769998 
L 300.46125 217.559386 
L 306.04125 221.49177 
L 311.62125 225.5754 
L 317.20125 229.819172 
L 322.78125 234.232695 
L 328.36125 244.749775 
L 333.94125 249.534844 
L 339.52125 254.523534 
L 345.10125 251.745393 
L 350.68125 256.610032 
L 356.26125 261.69579 
L 361.84125 265.089542 
L 367.42125 270.337305 
L 373.00125 281.764469 
L 378.58125 287.543408 
L 384.16125 299.542116 
L 389.74125 305.937163 
L 395.32125 312.677888 
L 400.90125 319.793098 
L 406.48125 333.238305 
L 412.06125 329.704168 
L 417.64125 313.570524 
L 423.22125 308.275352 
L 428.80125 308.179813 
L 434.38125 321.109412 
L 439.96125 328.598785 
L 445.54125 348.469937 
L 451.12125 352.920331 
L 456.70125 361.358241 
L 462.28125 370.471183 
L 467.86125 380.343538 
L 473.44125 396.99777 
L 479.02125 414.627531 
L 484.60125 433.372183 
L 490.18125 423.781896 
L 495.76125 393.229558 
L 501.34125 411.276914 
L 506.92125 430.750617 
L 512.50125 451.918106 
L 518.08125 374.420125 
L 523.66125 397.549641 
L 529.24125 376.850243 
L 534.82125 411.935071 
L 540.40125 431.320785 
L 545.98125 453.398959 
L 551.56125 484.990492 
L 557.14125 441.552134 
L 562.72125 462.707178 
L 568.30125 409.9606 
L 573.88125 435.628721 
L 579.46125 483.016021 
L 581.094137 504.394375 
M 586.700832 504.394375 
L 590.62125 382.318008 
L 596.20125 423.781896 
" clip-path="url(#p6427b5f8c4)" style="fill: none; stroke: #98fb98; stroke-width: 1.5; stroke-linecap: square"/>
   </g>
   <g id="line2d_31">
    <path d="M 49.36125 82.736933 
L 54.94125 85.301181 
L 60.52125 87.9183 
L 66.10125 90.589942 
L 71.68125 93.006071 
L 77.26125 95.725666 
L 82.84125 98.0579 
L 88.42125 100.827144 
L 94.00125 103.65725 
L 99.58125 106.550248 
L 105.16125 109.508256 
L 110.74125 112.533493 
L 116.32125 115.628275 
L 121.90125 118.795028 
L 127.48125 122.036294 
L 133.06125 125.354732 
L 138.64125 128.753133 
L 144.22125 130.93416 
L 149.80125 134.412225 
L 155.38125 143.900654 
L 160.96125 147.555925 
L 166.54125 146.292802 
L 172.12125 153.99738 
L 177.70125 153.798989 
L 183.28125 157.228333 
L 188.86125 160.750362 
L 194.44125 164.368885 
L 200.02125 168.087922 
L 205.60125 169.492299 
L 211.18125 168.228956 
L 216.76125 171.908094 
L 222.34125 181.618855 
L 227.92125 188.525169 
L 233.50125 192.409813 
L 239.08125 193.224455 
L 244.66125 197.211367 
L 250.24125 201.324848 
L 255.82125 205.571022 
L 261.40125 206.169315 
L 266.98125 218.436929 
L 272.56125 222.787458 
L 278.14125 222.998637 
L 283.72125 227.477927 
L 289.30125 243.964016 
L 294.88125 248.771981 
L 300.46125 244.543821 
L 306.04125 238.591433 
L 311.62125 237.422225 
L 317.20125 241.665997 
L 322.78125 234.232695 
L 328.36125 244.024459 
L 333.94125 248.053991 
L 339.52125 251.498813 
L 345.10125 255.608488 
L 350.68125 258.584502 
L 356.26125 267.08071 
L 361.84125 271.150708 
L 367.42125 275.414516 
L 373.00125 285.809726 
L 378.58125 296.428527 
L 384.16125 298.023292 
L 389.74125 293.155062 
L 395.32125 297.789311 
L 400.90125 293.466821 
L 406.48125 303.621242 
L 412.06125 296.602745 
L 417.64125 294.723302 
L 423.22125 304.573219 
L 428.80125 314.676459 
L 434.38125 305.313646 
L 439.96125 300.820022 
L 445.54125 316.314269 
L 451.12125 320.23187 
L 456.70125 324.450825 
L 462.28125 311.237058 
L 467.86125 327.032825 
L 473.44125 317.41801 
L 479.02125 332.77674 
L 484.60125 338.033448 
L 490.18125 329.007296 
L 495.76125 336.489501 
L 501.34125 344.144906 
L 506.92125 352.004074 
L 512.50125 329.007296 
L 518.08125 329.007296 
L 523.66125 340.854121 
L 529.24125 346.777533 
L 534.82125 358.624358 
L 540.40125 358.624358 
L 545.98125 364.547771 
L 551.56125 382.318008 
L 557.14125 411.935071 
L 562.72125 417.858484 
L 568.30125 417.858484 
L 573.88125 429.705309 
L 579.46125 435.628721 
L 585.04125 435.628721 
L 590.62125 435.628721 
L 596.20125 435.628721 
" clip-path="url(#p6427b5f8c4)" style="fill: none; stroke: #dda0dd; stroke-width: 1.5; stroke-linecap: square"/>
   </g>
   <g id="line2d_32">
    <path d="M 49.36125 88.660345 
L 54.94125 91.224593 
L 60.52125 93.841712 
L 66.10125 96.513354 
L 71.68125 98.929483 
L 77.26125 101.649079 
L 82.84125 103.981313 
L 88.42125 106.750556 
L 94.00125 108.994831 
L 99.58125 111.815503 
L 105.16125 114.699562 
L 110.74125 117.649167 
L 116.32125 120.666579 
L 121.90125 122.789888 
L 127.48125 124.823782 
L 133.06125 133.81675 
L 138.64125 134.533812 
L 144.22125 134.979417 
L 149.80125 136.532953 
L 155.38125 139.458095 
L 160.96125 140.882713 
L 166.54125 142.191978 
L 172.12125 149.304807 
L 177.70125 158.163608 
L 183.28125 161.177274 
L 188.86125 162.191192 
L 194.44125 171.184866 
L 200.02125 174.340413 
L 205.60125 177.584849 
L 211.18125 178.383377 
L 216.76125 173.710872 
L 222.34125 176.74075 
L 227.92125 179.949482 
L 233.50125 179.844999 
L 239.08125 188.667984 
L 244.66125 191.658168 
L 250.24125 194.743279 
L 255.82125 190.666952 
L 261.40125 193.642754 
L 266.98125 202.641162 
L 272.56125 207.627537 
L 278.14125 206.453933 
L 283.72125 205.031311 
L 289.30125 208.00044 
L 294.88125 228.847775 
L 300.46125 232.038839 
L 306.04125 224.844645 
L 311.62125 228.309283 
L 317.20125 231.212916 
L 322.78125 234.232695 
L 328.36125 230.968774 
L 333.94125 233.739078 
L 339.52125 242.550679 
L 345.10125 251.487854 
L 350.68125 254.635561 
L 356.26125 256.310869 
L 361.84125 265.36505 
L 367.42125 260.464951 
L 373.00125 275.407636 
L 378.58125 284.581702 
L 384.16125 299.84588 
L 389.74125 303.443094 
L 395.32125 307.234752 
L 400.90125 306.62996 
L 406.48125 322.237681 
L 412.06125 332.14322 
L 417.64125 318.237455 
L 423.22125 333.449855 
L 428.80125 329.771607 
L 434.38125 338.87965 
L 439.96125 342.28391 
L 445.54125 351.854744 
L 451.12125 345.680605 
L 456.70125 354.979181 
L 462.28125 364.547771 
L 467.86125 355.662652 
L 473.44125 358.881898 
L 479.02125 368.317215 
L 484.60125 372.163587 
L 490.18125 388.241421 
L 495.76125 392.917799 
L 501.34125 388.899578 
L 506.92125 392.771089 
L 512.50125 408.973365 
L 518.08125 413.909542 
L 523.66125 425.4743 
L 529.24125 431.983544 
L 534.82125 402.062717 
L 540.40125 406.550151 
L 545.98125 423.781896 
L 551.56125 442.210291 
L 557.14125 456.360665 
L 562.72125 466.938187 
L 568.30125 492.888376 
L 571.55293 504.394375 
M 574.337783 504.394375 
L 579.46125 411.935071 
L 585.04125 417.858484 
L 590.62125 417.858484 
L 596.20125 429.705309 
" clip-path="url(#p6427b5f8c4)" style="fill: none; stroke: #f0e68c; stroke-width: 1.5; stroke-linecap: square"/>
   </g>
   <g id="line2d_33">
    <path d="M 49.36125 82.617268 
L 54.94125 85.059409 
L 60.52125 87.551903 
L 66.10125 90.096324 
L 71.68125 92.694312 
L 77.26125 95.347576 
L 82.84125 98.0579 
L 88.42125 100.827144 
L 94.00125 103.65725 
L 99.58125 106.550248 
L 105.16125 109.508256 
L 110.74125 112.533493 
L 116.32125 115.628275 
L 121.90125 118.795028 
L 127.48125 122.036294 
L 133.06125 125.354732 
L 138.64125 134.676545 
L 144.22125 136.857572 
L 149.80125 143.480165 
L 155.38125 146.862361 
L 160.96125 162.177006 
L 166.54125 165.733745 
L 172.12125 175.30628 
L 177.70125 179.051431 
L 183.28125 182.896454 
L 188.86125 186.845395 
L 194.44125 188.711676 
L 200.02125 192.768808 
L 205.60125 196.940225 
L 211.18125 201.230826 
L 216.76125 205.645791 
L 222.34125 210.190609 
L 227.92125 214.871093 
L 233.50125 222.565368 
L 239.08125 221.018929 
L 244.66125 222.38587 
L 250.24125 233.010404 
L 255.82125 237.863174 
L 261.40125 235.300852 
L 266.98125 238.181637 
L 272.56125 242.364838 
L 278.14125 251.594422 
L 283.72125 279.229847 
L 289.30125 278.658289 
L 294.88125 288.620392 
L 300.46125 292.808664 
L 306.04125 291.902146 
L 311.62125 296.200703 
L 317.20125 306.591244 
L 322.78125 311.237058 
L 328.36125 316.072497 
L 333.94125 321.109412 
L 339.52125 326.360665 
L 345.10125 324.886661 
L 350.68125 336.247022 
L 356.26125 334.392216 
L 361.84125 340.027598 
L 367.42125 343.674793 
L 373.00125 340.998594 
L 378.58125 349.73924 
L 384.16125 352.093416 
L 389.74125 348.024568 
L 395.32125 339.253198 
L 400.90125 361.915143 
L 406.48125 367.086376 
L 412.06125 361.063411 
L 417.64125 366.342744 
L 423.22125 371.952037 
L 428.80125 377.923219 
L 434.38125 390.215892 
L 439.96125 397.024412 
L 445.54125 404.319255 
L 451.12125 412.154457 
L 456.70125 420.592366 
L 462.28125 435.628721 
L 467.86125 451.424488 
L 473.44125 462.155308 
L 479.02125 479.785069 
L 484.587959 504.394375 
M 484.611101 504.394375 
L 490.18125 471.169196 
L 495.76125 462.751715 
L 501.34125 463.92947 
L 506.92125 427.614692 
L 512.50125 445.994693 
L 518.08125 453.398959 
L 523.66125 461.860977 
L 529.24125 471.624843 
L 534.82125 483.016021 
L 540.40125 496.478322 
L 543.135526 504.394375 
" clip-path="url(#p6427b5f8c4)" style="fill: none; stroke: #ffb6c1; stroke-width: 1.5; stroke-linecap: square"/>
   </g>
   <g id="line2d_34">
    <path d="M 49.36125 117.379921 
L 54.94125 124.105577 
L 60.52125 137.198649 
L 66.10125 143.900654 
L 71.68125 150.993162 
L 77.26125 152.18713 
L 82.84125 152.960928 
L 88.42125 154.137857 
L 94.00125 155.340652 
L 99.58125 156.570176 
L 105.16125 157.827329 
L 110.74125 159.113055 
L 116.32125 160.428337 
L 121.90125 161.774207 
L 127.48125 163.151745 
L 133.06125 164.562081 
L 138.64125 166.006402 
L 144.22125 166.185688 
L 149.80125 167.612587 
L 155.38125 169.075158 
L 160.96125 170.574756 
L 166.54125 172.112805 
L 172.12125 173.690804 
L 177.70125 173.439777 
L 183.28125 174.99857 
L 188.86125 174.518293 
L 194.44125 176.053424 
L 200.02125 177.631198 
L 205.60125 179.253416 
L 211.18125 180.921983 
L 216.76125 182.638914 
L 222.34125 184.406343 
L 227.92125 180.391528 
L 233.50125 187.922379 
L 239.08125 189.579278 
L 244.66125 191.287955 
L 250.24125 193.050875 
L 255.82125 194.870664 
L 261.40125 196.750118 
L 266.98125 204.615633 
L 272.56125 206.623569 
L 278.14125 208.700745 
L 283.72125 216.774216 
L 289.30125 224.924476 
L 294.88125 227.232299 
L 300.46125 229.625597 
L 306.04125 232.109208 
L 311.62125 234.688343 
L 317.20125 237.36862 
L 322.78125 240.156108 
L 328.36125 243.057371 
L 333.94125 246.07952 
L 339.52125 249.230272 
L 345.10125 252.518012 
L 350.68125 255.951875 
L 356.26125 259.541822 
L 361.84125 263.298743 
L 367.42125 267.234565 
L 373.00125 271.362379 
L 378.58125 275.696583 
L 384.16125 280.253054 
L 389.74125 285.04934 
L 395.32125 290.104884 
L 400.90125 295.441291 
L 406.48125 301.082637 
L 412.06125 295.557437 
L 417.64125 301.364704 
L 423.22125 313.458338 
L 428.80125 320.026638 
L 434.38125 332.956237 
L 439.96125 340.44561 
L 445.54125 348.469937 
L 451.12125 357.088659 
L 456.70125 366.370359 
L 462.28125 376.394596 
L 467.86125 387.254186 
L 473.44125 399.058087 
L 479.02125 411.935071 
L 484.60125 426.038434 
L 490.18125 441.552134 
L 495.76125 458.698854 
L 501.34125 456.689743 
L 506.92125 476.047301 
L 512.50125 497.824553 
L 513.699108 504.394375 
" clip-path="url(#p6427b5f8c4)" style="fill: none; stroke: #e6e6fa; stroke-width: 1.5; stroke-linecap: square"/>
   </g>
   <g id="line2d_35">
    <path d="M 49.36125 100.028511 
L 54.94125 101.983444 
L 60.52125 109.596768 
L 66.10125 110.581459 
L 71.68125 112.023342 
L 77.26125 113.747964 
L 82.84125 115.509675 
L 88.42125 121.687857 
L 94.00125 123.315169 
L 99.58125 124.978642 
L 105.16125 138.526322 
L 110.74125 140.265833 
L 116.32125 142.045333 
L 121.90125 140.973387 
L 127.48125 142.594019 
L 133.06125 143.124969 
L 138.64125 156.586035 
L 144.22125 158.239647 
L 149.80125 159.934089 
L 155.38125 161.670892 
L 160.96125 163.451665 
L 166.54125 165.278098 
L 172.12125 165.382641 
L 177.70125 167.204606 
L 183.28125 174.99857 
L 188.86125 176.919677 
L 194.44125 178.893417 
L 200.02125 178.618433 
L 205.60125 180.588269 
L 211.18125 182.614386 
L 216.76125 196.546056 
L 222.34125 204.615633 
L 227.92125 206.825861 
L 233.50125 215.026479 
L 239.08125 217.373752 
L 244.66125 219.794377 
L 250.24125 218.813018 
L 255.82125 221.239403 
L 261.40125 223.745342 
L 266.98125 226.334812 
L 272.56125 229.012061 
L 278.14125 237.705041 
L 283.72125 240.571786 
L 289.30125 243.540915 
L 294.88125 246.618012 
L 300.46125 249.809076 
L 306.04125 247.86772 
L 311.62125 251.091639 
L 317.20125 260.365398 
L 322.78125 269.773171 
L 328.36125 273.39975 
L 333.94125 270.760406 
L 339.52125 274.436283 
L 345.10125 278.27198 
L 350.68125 282.278153 
L 356.26125 292.389837 
L 361.84125 296.772911 
L 367.42125 301.364704 
L 373.00125 306.180487 
L 378.58125 302.351939 
L 384.16125 307.288117 
L 389.74125 312.484092 
L 395.32125 317.960932 
L 400.90125 329.665453 
L 406.48125 341.700323 
L 412.06125 336.672888 
L 417.64125 343.008089 
L 423.22125 349.73924 
L 428.80125 356.904658 
L 434.38125 364.547771 
L 439.96125 384.56482 
L 445.54125 393.318632 
L 451.12125 402.720874 
L 456.70125 412.846365 
L 462.28125 423.781896 
L 467.86125 435.628721 
L 473.44125 408.844595 
L 479.02125 426.474356 
L 484.60125 445.219008 
L 490.18125 459.322371 
L 495.76125 474.910299 
L 501.34125 498.153631 
L 502.718703 504.394375 
M 523.004255 504.394375 
L 523.66125 494.862846 
L 525.995773 504.394375 
" clip-path="url(#p6427b5f8c4)" style="fill: none; stroke: #f0f8ff; stroke-width: 1.5; stroke-linecap: square"/>
   </g>
   <g id="legend_1">
    <g id="patch_7">
     <path d="M 490.707812 177.099375 
L 594.78125 177.099375 
Q 596.78125 177.099375 596.78125 175.099375 
L 596.78125 29.318125 
Q 596.78125 27.318125 594.78125 27.318125 
L 490.707812 27.318125 
Q 488.707812 27.318125 488.707812 29.318125 
L 488.707812 175.099375 
Q 488.707812 177.099375 490.707812 177.099375 
z
" style="fill: #ffffff; opacity: 0.8; stroke: #cccccc; stroke-linejoin: miter"/>
    </g>
    <g id="line2d_36">
     <path d="M 492.707812 35.416562 
L 502.707812 35.416562 
L 512.707813 35.416562 
" style="fill: none; stroke: #8b0000; stroke-width: 2; stroke-linecap: square"/>
    </g>
    <g id="text_17">
     <!-- XGBoost -->
     <g transform="translate(520.707813 38.916562) scale(0.1 -0.1)">
      <defs>
       <path id="DejaVuSans-58" d="M 403 4666 
L 1081 4666 
L 2241 2931 
L 3406 4666 
L 4084 4666 
L 2584 2425 
L 4184 0 
L 3506 0 
L 2194 1984 
L 872 0 
L 191 0 
L 1856 2491 
L 403 4666 
z
" transform="scale(0.015625)"/>
       <path id="DejaVuSans-47" d="M 3809 666 
L 3809 1919 
L 2778 1919 
L 2778 2438 
L 4434 2438 
L 4434 434 
Q 4069 175 3628 42 
Q 3188 -91 2688 -91 
Q 1594 -91 976 548 
Q 359 1188 359 2328 
Q 359 3472 976 4111 
Q 1594 4750 2688 4750 
Q 3144 4750 3555 4637 
Q 3966 4525 4313 4306 
L 4313 3634 
Q 3963 3931 3569 4081 
Q 3175 4231 2741 4231 
Q 1884 4231 1454 3753 
Q 1025 3275 1025 2328 
Q 1025 1384 1454 906 
Q 1884 428 2741 428 
Q 3075 428 3337 486 
Q 3600 544 3809 666 
z
" transform="scale(0.015625)"/>
      </defs>
      <use xlink:href="#DejaVuSans-58"/>
      <use xlink:href="#DejaVuSans-47" x="68.505859"/>
      <use xlink:href="#DejaVuSans-42" x="145.996094"/>
      <use xlink:href="#DejaVuSans-6f" x="214.599609"/>
      <use xlink:href="#DejaVuSans-6f" x="275.78125"/>
      <use xlink:href="#DejaVuSans-73" x="336.962891"/>
      <use xlink:href="#DejaVuSans-74" x="389.0625"/>
     </g>
    </g>
    <g id="line2d_37">
     <path d="M 492.707812 50.094688 
L 502.707812 50.094688 
L 512.707813 50.094688 
" style="fill: none; stroke: #add8e6; stroke-width: 1.5; stroke-linecap: square"/>
    </g>
    <g id="text_18">
     <!-- LightGBM -->
     <g transform="translate(520.707813 53.594688) scale(0.1 -0.1)">
      <use xlink:href="#DejaVuSans-4c"/>
      <use xlink:href="#DejaVuSans-69" x="55.712891"/>
      <use xlink:href="#DejaVuSans-67" x="83.496094"/>
      <use xlink:href="#DejaVuSans-68" x="146.972656"/>
      <use xlink:href="#DejaVuSans-74" x="210.351562"/>
      <use xlink:href="#DejaVuSans-47" x="249.560547"/>
      <use xlink:href="#DejaVuSans-42" x="327.050781"/>
      <use xlink:href="#DejaVuSans-4d" x="395.654297"/>
     </g>
    </g>
    <g id="line2d_38">
     <path d="M 492.707812 64.772813 
L 502.707812 64.772813 
L 512.707813 64.772813 
" style="fill: none; stroke: #98fb98; stroke-width: 1.5; stroke-linecap: square"/>
    </g>
    <g id="text_19">
     <!-- CatBoost -->
     <g transform="translate(520.707813 68.272813) scale(0.1 -0.1)">
      <use xlink:href="#DejaVuSans-43"/>
      <use xlink:href="#DejaVuSans-61" x="69.824219"/>
      <use xlink:href="#DejaVuSans-74" x="131.103516"/>
      <use xlink:href="#DejaVuSans-42" x="170.3125"/>
      <use xlink:href="#DejaVuSans-6f" x="238.916016"/>
      <use xlink:href="#DejaVuSans-6f" x="300.097656"/>
      <use xlink:href="#DejaVuSans-73" x="361.279297"/>
      <use xlink:href="#DejaVuSans-74" x="413.378906"/>
     </g>
    </g>
    <g id="line2d_39">
     <path d="M 492.707812 79.450938 
L 502.707812 79.450938 
L 512.707813 79.450938 
" style="fill: none; stroke: #dda0dd; stroke-width: 1.5; stroke-linecap: square"/>
    </g>
    <g id="text_20">
     <!-- RandomForest -->
     <g transform="translate(520.707813 82.950938) scale(0.1 -0.1)">
      <defs>
       <path id="DejaVuSans-52" d="M 2841 2188 
Q 3044 2119 3236 1894 
Q 3428 1669 3622 1275 
L 4263 0 
L 3584 0 
L 2988 1197 
Q 2756 1666 2539 1819 
Q 2322 1972 1947 1972 
L 1259 1972 
L 1259 0 
L 628 0 
L 628 4666 
L 2053 4666 
Q 2853 4666 3247 4331 
Q 3641 3997 3641 3322 
Q 3641 2881 3436 2590 
Q 3231 2300 2841 2188 
z
M 1259 4147 
L 1259 2491 
L 2053 2491 
Q 2509 2491 2742 2702 
Q 2975 2913 2975 3322 
Q 2975 3731 2742 3939 
Q 2509 4147 2053 4147 
L 1259 4147 
z
" transform="scale(0.015625)"/>
       <path id="DejaVuSans-6d" d="M 3328 2828 
Q 3544 3216 3844 3400 
Q 4144 3584 4550 3584 
Q 5097 3584 5394 3201 
Q 5691 2819 5691 2113 
L 5691 0 
L 5113 0 
L 5113 2094 
Q 5113 2597 4934 2840 
Q 4756 3084 4391 3084 
Q 3944 3084 3684 2787 
Q 3425 2491 3425 1978 
L 3425 0 
L 2847 0 
L 2847 2094 
Q 2847 2600 2669 2842 
Q 2491 3084 2119 3084 
Q 1678 3084 1418 2786 
Q 1159 2488 1159 1978 
L 1159 0 
L 581 0 
L 581 3500 
L 1159 3500 
L 1159 2956 
Q 1356 3278 1631 3431 
Q 1906 3584 2284 3584 
Q 2666 3584 2933 3390 
Q 3200 3197 3328 2828 
z
" transform="scale(0.015625)"/>
      </defs>
      <use xlink:href="#DejaVuSans-52"/>
      <use xlink:href="#DejaVuSans-61" x="67.232422"/>
      <use xlink:href="#DejaVuSans-6e" x="128.511719"/>
      <use xlink:href="#DejaVuSans-64" x="191.890625"/>
      <use xlink:href="#DejaVuSans-6f" x="255.367188"/>
      <use xlink:href="#DejaVuSans-6d" x="316.548828"/>
      <use xlink:href="#DejaVuSans-46" x="413.960938"/>
      <use xlink:href="#DejaVuSans-6f" x="467.855469"/>
      <use xlink:href="#DejaVuSans-72" x="529.037109"/>
      <use xlink:href="#DejaVuSans-65" x="567.900391"/>
      <use xlink:href="#DejaVuSans-73" x="629.423828"/>
      <use xlink:href="#DejaVuSans-74" x="681.523438"/>
     </g>
    </g>
    <g id="line2d_40">
     <path d="M 492.707812 94.129063 
L 502.707812 94.129063 
L 512.707813 94.129063 
" style="fill: none; stroke: #f0e68c; stroke-width: 1.5; stroke-linecap: square"/>
    </g>
    <g id="text_21">
     <!-- LR -->
     <g transform="translate(520.707813 97.629063) scale(0.1 -0.1)">
      <use xlink:href="#DejaVuSans-4c"/>
      <use xlink:href="#DejaVuSans-52" x="55.712891"/>
     </g>
    </g>
    <g id="line2d_41">
     <path d="M 492.707812 108.807187 
L 502.707812 108.807187 
L 512.707813 108.807187 
" style="fill: none; stroke: #ffb6c1; stroke-width: 1.5; stroke-linecap: square"/>
    </g>
    <g id="text_22">
     <!-- KNN -->
     <g transform="translate(520.707813 112.307187) scale(0.1 -0.1)">
      <defs>
       <path id="DejaVuSans-4b" d="M 628 4666 
L 1259 4666 
L 1259 2694 
L 3353 4666 
L 4166 4666 
L 1850 2491 
L 4331 0 
L 3500 0 
L 1259 2247 
L 1259 0 
L 628 0 
L 628 4666 
z
" transform="scale(0.015625)"/>
      </defs>
      <use xlink:href="#DejaVuSans-4b"/>
      <use xlink:href="#DejaVuSans-4e" x="65.576172"/>
      <use xlink:href="#DejaVuSans-4e" x="140.380859"/>
     </g>
    </g>
    <g id="line2d_42">
     <path d="M 492.707812 123.485313 
L 502.707812 123.485313 
L 512.707813 123.485313 
" style="fill: none; stroke: #e6e6fa; stroke-width: 1.5; stroke-linecap: square"/>
    </g>
    <g id="text_23">
     <!-- NaiveBayes -->
     <g transform="translate(520.707813 126.985313) scale(0.1 -0.1)">
      <use xlink:href="#DejaVuSans-4e"/>
      <use xlink:href="#DejaVuSans-61" x="74.804688"/>
      <use xlink:href="#DejaVuSans-69" x="136.083984"/>
      <use xlink:href="#DejaVuSans-76" x="163.867188"/>
      <use xlink:href="#DejaVuSans-65" x="223.046875"/>
      <use xlink:href="#DejaVuSans-42" x="284.570312"/>
      <use xlink:href="#DejaVuSans-61" x="353.173828"/>
      <use xlink:href="#DejaVuSans-79" x="414.453125"/>
      <use xlink:href="#DejaVuSans-65" x="473.632812"/>
      <use xlink:href="#DejaVuSans-73" x="535.15625"/>
     </g>
    </g>
    <g id="line2d_43">
     <path d="M 492.707812 138.163437 
L 502.707812 138.163437 
L 512.707813 138.163437 
" style="fill: none; stroke: #f0f8ff; stroke-width: 1.5; stroke-linecap: square"/>
    </g>
    <g id="text_24">
     <!-- QDA -->
     <g transform="translate(520.707813 141.663437) scale(0.1 -0.1)">
      <defs>
       <path id="DejaVuSans-51" d="M 2522 4238 
Q 1834 4238 1429 3725 
Q 1025 3213 1025 2328 
Q 1025 1447 1429 934 
Q 1834 422 2522 422 
Q 3209 422 3611 934 
Q 4013 1447 4013 2328 
Q 4013 3213 3611 3725 
Q 3209 4238 2522 4238 
z
M 3406 84 
L 4238 -825 
L 3475 -825 
L 2784 -78 
Q 2681 -84 2626 -87 
Q 2572 -91 2522 -91 
Q 1538 -91 948 567 
Q 359 1225 359 2328 
Q 359 3434 948 4092 
Q 1538 4750 2522 4750 
Q 3503 4750 4090 4092 
Q 4678 3434 4678 2328 
Q 4678 1516 4351 937 
Q 4025 359 3406 84 
z
" transform="scale(0.015625)"/>
      </defs>
      <use xlink:href="#DejaVuSans-51"/>
      <use xlink:href="#DejaVuSans-44" x="78.710938"/>
      <use xlink:href="#DejaVuSans-41" x="153.962891"/>
     </g>
    </g>
    <g id="line2d_44">
     <path d="M 492.707812 152.841563 
L 502.707812 152.841563 
L 512.707813 152.841563 
" style="fill: none; stroke-dasharray: 5.55,2.4; stroke-dashoffset: 0; stroke: #000000; stroke-width: 1.5"/>
    </g>
    <g id="text_25">
     <!-- Treat All -->
     <g transform="translate(520.707813 156.341563) scale(0.1 -0.1)">
      <use xlink:href="#DejaVuSans-54"/>
      <use xlink:href="#DejaVuSans-72" x="46.333984"/>
      <use xlink:href="#DejaVuSans-65" x="85.197266"/>
      <use xlink:href="#DejaVuSans-61" x="146.720703"/>
      <use xlink:href="#DejaVuSans-74" x="208"/>
      <use xlink:href="#DejaVuSans-20" x="247.208984"/>
      <use xlink:href="#DejaVuSans-41" x="278.996094"/>
      <use xlink:href="#DejaVuSans-6c" x="347.404297"/>
      <use xlink:href="#DejaVuSans-6c" x="375.1875"/>
     </g>
    </g>
    <g id="line2d_45">
     <path d="M 492.707812 167.519687 
L 502.707812 167.519687 
L 512.707813 167.519687 
" style="fill: none; stroke-dasharray: 1.5,2.475; stroke-dashoffset: 0; stroke: #000000; stroke-width: 1.5"/>
    </g>
    <g id="text_26">
     <!-- Treat None -->
     <g transform="translate(520.707813 171.019687) scale(0.1 -0.1)">
      <use xlink:href="#DejaVuSans-54"/>
      <use xlink:href="#DejaVuSans-72" x="46.333984"/>
      <use xlink:href="#DejaVuSans-65" x="85.197266"/>
      <use xlink:href="#DejaVuSans-61" x="146.720703"/>
      <use xlink:href="#DejaVuSans-74" x="208"/>
      <use xlink:href="#DejaVuSans-20" x="247.208984"/>
      <use xlink:href="#DejaVuSans-4e" x="278.996094"/>
      <use xlink:href="#DejaVuSans-6f" x="353.800781"/>
      <use xlink:href="#DejaVuSans-6e" x="414.982422"/>
      <use xlink:href="#DejaVuSans-65" x="478.361328"/>
     </g>
    </g>
   </g>
   <g id="line2d_46">
    <path d="M 49.36125 82.736933 
L 54.94125 85.301181 
L 60.52125 87.9183 
L 66.10125 90.589942 
L 71.68125 93.317829 
L 77.26125 96.103757 
L 82.84125 98.949597 
L 88.42125 101.857303 
L 94.00125 104.828914 
L 99.58125 107.866562 
L 105.16125 110.972471 
L 110.74125 114.148969 
L 116.32125 117.39849 
L 121.90125 120.723581 
L 127.48125 123.081602 
L 133.06125 125.354732 
L 138.64125 128.753133 
L 144.22125 132.234421 
L 149.80125 135.801668 
L 155.38125 139.458095 
L 160.96125 147.555925 
L 166.54125 149.634214 
L 172.12125 153.381961 
L 177.70125 153.48723 
L 183.28125 155.253862 
L 188.86125 154.826949 
L 194.44125 159.987182 
L 200.02125 161.177274 
L 205.60125 159.814611 
L 211.18125 160.61314 
L 216.76125 161.263121 
L 222.34125 164.545489 
L 227.92125 170.93175 
L 233.50125 174.280581 
L 239.08125 180.466336 
L 244.66125 183.883689 
L 250.24125 187.40953 
L 255.82125 187.418629 
L 261.40125 191.020916 
L 266.98125 190.794337 
L 272.56125 192.166427 
L 278.14125 191.339019 
L 283.72125 196.198152 
L 289.30125 199.538422 
L 294.88125 210.000553 
L 300.46125 219.314471 
L 306.04125 222.83292 
L 311.62125 226.486694 
L 317.20125 236.207166 
L 322.78125 234.232695 
L 328.36125 238.101046 
L 333.94125 253.977404 
L 339.52125 264.101818 
L 345.10125 273.378726 
L 350.68125 270.431327 
L 356.26125 263.849758 
L 361.84125 279.140428 
L 367.42125 282.748265 
L 373.00125 286.532094 
L 378.58125 284.581702 
L 384.16125 305.769293 
L 389.74125 315.289919 
L 395.32125 325.00499 
L 400.90125 318.476785 
L 406.48125 334.084506 
L 412.06125 326.568244 
L 417.64125 336.18719 
L 423.22125 351.960519 
L 428.80125 342.955977 
L 434.38125 338.87965 
L 439.96125 342.28391 
L 445.54125 351.854744 
L 451.12125 351.604018 
L 456.70125 366.826006 
L 462.28125 370.471183 
L 467.86125 354.675417 
L 473.44125 362.744993 
L 479.02125 344.085073 
L 484.60125 351.29061 
L 490.18125 382.318008 
L 495.76125 395.723626 
L 501.34125 376.394596 
L 506.92125 388.241421 
L 512.50125 394.164833 
L 518.08125 400.088246 
L 523.66125 406.011659 
L 529.24125 411.935071 
L 534.82125 429.705309 
L 540.40125 435.628721 
L 545.98125 435.628721 
L 551.56125 435.628721 
L 557.14125 435.628721 
L 562.72125 435.628721 
L 568.30125 435.628721 
L 573.88125 435.628721 
L 579.46125 435.628721 
L 585.04125 435.628721 
L 590.62125 435.628721 
L 596.20125 435.628721 
" clip-path="url(#p6427b5f8c4)" style="fill: none; stroke: #8b0000; stroke-width: 2; stroke-linecap: square"/>
   </g>
  </g>
 </g>
 <defs>
  <clipPath id="p6427b5f8c4">
   <rect x="43.78125" y="22.318125" width="558" height="443.52"/>
  </clipPath>
 </defs>
</svg>
