<?xml version="1.0" encoding="utf-8" standalone="no"?>
<!DOCTYPE svg PUBLIC "-//W3C//DTD SVG 1.1//EN"
  "http://www.w3.org/Graphics/SVG/1.1/DTD/svg11.dtd">
<svg xmlns:xlink="http://www.w3.org/1999/xlink" width="616.932812pt" height="503.394375pt" viewBox="0 0 616.932812 503.394375" xmlns="http://www.w3.org/2000/svg" version="1.1">
 <metadata>
  <rdf:RDF xmlns:dc="http://purl.org/dc/elements/1.1/" xmlns:cc="http://creativecommons.org/ns#" xmlns:rdf="http://www.w3.org/1999/02/22-rdf-syntax-ns#">
   <cc:Work>
    <dc:type rdf:resource="http://purl.org/dc/dcmitype/StillImage"/>
    <dc:date>2025-03-18T15:47:18.593194</dc:date>
    <dc:format>image/svg+xml</dc:format>
    <dc:creator>
     <cc:Agent>
      <dc:title>Matplotlib v3.7.2, https://matplotlib.org/</dc:title>
     </cc:Agent>
    </dc:creator>
   </cc:Work>
  </rdf:RDF>
 </metadata>
 <defs>
  <style type="text/css">*{stroke-linejoin: round; stroke-linecap: butt}</style>
 </defs>
 <g id="figure_1">
  <g id="patch_1">
   <path d="M 0 503.394375 
L 616.932812 503.394375 
L 616.932812 0 
L 0 0 
z
" style="fill: #ffffff"/>
  </g>
  <g id="axes_1">
   <g id="patch_2">
    <path d="M 43.78125 465.838125 
L 601.78125 465.838125 
L 601.78125 22.318125 
L 43.78125 22.318125 
z
" style="fill: #ffffff"/>
   </g>
   <g id="line2d_1">
    <path d="M 43.78125 465.838125 
L 601.78125 31.014596 
" clip-path="url(#pf0864f242d)" style="fill: none; stroke-dasharray: 5.55,2.4; stroke-dashoffset: 0; stroke: #000000; stroke-width: 1.5"/>
   </g>
   <g id="matplotlib.axis_1">
    <g id="xtick_1">
     <g id="line2d_2">
      <path d="M 43.78125 465.838125 
L 43.78125 22.318125 
" clip-path="url(#pf0864f242d)" style="fill: none; stroke: #b0b0b0; stroke-width: 0.8; stroke-linecap: square"/>
     </g>
     <g id="line2d_3">
      <defs>
       <path id="m03ad7057b9" d="M 0 0 
L 0 3.5 
" style="stroke: #000000; stroke-width: 0.8"/>
      </defs>
      <g>
       <use xlink:href="#m03ad7057b9" x="43.78125" y="465.838125" style="stroke: #000000; stroke-width: 0.8"/>
      </g>
     </g>
     <g id="text_1">
      <!-- 0.0 -->
      <g transform="translate(35.829688 480.436562) scale(0.1 -0.1)">
       <defs>
        <path id="DejaVuSans-30" d="M 2034 4250 
Q 1547 4250 1301 3770 
Q 1056 3291 1056 2328 
Q 1056 1369 1301 889 
Q 1547 409 2034 409 
Q 2525 409 2770 889 
Q 3016 1369 3016 2328 
Q 3016 3291 2770 3770 
Q 2525 4250 2034 4250 
z
M 2034 4750 
Q 2819 4750 3233 4129 
Q 3647 3509 3647 2328 
Q 3647 1150 3233 529 
Q 2819 -91 2034 -91 
Q 1250 -91 836 529 
Q 422 1150 422 2328 
Q 422 3509 836 4129 
Q 1250 4750 2034 4750 
z
" transform="scale(0.015625)"/>
        <path id="DejaVuSans-2e" d="M 684 794 
L 1344 794 
L 1344 0 
L 684 0 
L 684 794 
z
" transform="scale(0.015625)"/>
       </defs>
       <use xlink:href="#DejaVuSans-30"/>
       <use xlink:href="#DejaVuSans-2e" x="63.623047"/>
       <use xlink:href="#DejaVuSans-30" x="95.410156"/>
      </g>
     </g>
    </g>
    <g id="xtick_2">
     <g id="line2d_4">
      <path d="M 155.38125 465.838125 
L 155.38125 22.318125 
" clip-path="url(#pf0864f242d)" style="fill: none; stroke: #b0b0b0; stroke-width: 0.8; stroke-linecap: square"/>
     </g>
     <g id="line2d_5">
      <g>
       <use xlink:href="#m03ad7057b9" x="155.38125" y="465.838125" style="stroke: #000000; stroke-width: 0.8"/>
      </g>
     </g>
     <g id="text_2">
      <!-- 0.2 -->
      <g transform="translate(147.429688 480.436562) scale(0.1 -0.1)">
       <defs>
        <path id="DejaVuSans-32" d="M 1228 531 
L 3431 531 
L 3431 0 
L 469 0 
L 469 531 
Q 828 903 1448 1529 
Q 2069 2156 2228 2338 
Q 2531 2678 2651 2914 
Q 2772 3150 2772 3378 
Q 2772 3750 2511 3984 
Q 2250 4219 1831 4219 
Q 1534 4219 1204 4116 
Q 875 4013 500 3803 
L 500 4441 
Q 881 4594 1212 4672 
Q 1544 4750 1819 4750 
Q 2544 4750 2975 4387 
Q 3406 4025 3406 3419 
Q 3406 3131 3298 2873 
Q 3191 2616 2906 2266 
Q 2828 2175 2409 1742 
Q 1991 1309 1228 531 
z
" transform="scale(0.015625)"/>
       </defs>
       <use xlink:href="#DejaVuSans-30"/>
       <use xlink:href="#DejaVuSans-2e" x="63.623047"/>
       <use xlink:href="#DejaVuSans-32" x="95.410156"/>
      </g>
     </g>
    </g>
    <g id="xtick_3">
     <g id="line2d_6">
      <path d="M 266.98125 465.838125 
L 266.98125 22.318125 
" clip-path="url(#pf0864f242d)" style="fill: none; stroke: #b0b0b0; stroke-width: 0.8; stroke-linecap: square"/>
     </g>
     <g id="line2d_7">
      <g>
       <use xlink:href="#m03ad7057b9" x="266.98125" y="465.838125" style="stroke: #000000; stroke-width: 0.8"/>
      </g>
     </g>
     <g id="text_3">
      <!-- 0.4 -->
      <g transform="translate(259.029688 480.436562) scale(0.1 -0.1)">
       <defs>
        <path id="DejaVuSans-34" d="M 2419 4116 
L 825 1625 
L 2419 1625 
L 2419 4116 
z
M 2253 4666 
L 3047 4666 
L 3047 1625 
L 3713 1625 
L 3713 1100 
L 3047 1100 
L 3047 0 
L 2419 0 
L 2419 1100 
L 313 1100 
L 313 1709 
L 2253 4666 
z
" transform="scale(0.015625)"/>
       </defs>
       <use xlink:href="#DejaVuSans-30"/>
       <use xlink:href="#DejaVuSans-2e" x="63.623047"/>
       <use xlink:href="#DejaVuSans-34" x="95.410156"/>
      </g>
     </g>
    </g>
    <g id="xtick_4">
     <g id="line2d_8">
      <path d="M 378.58125 465.838125 
L 378.58125 22.318125 
" clip-path="url(#pf0864f242d)" style="fill: none; stroke: #b0b0b0; stroke-width: 0.8; stroke-linecap: square"/>
     </g>
     <g id="line2d_9">
      <g>
       <use xlink:href="#m03ad7057b9" x="378.58125" y="465.838125" style="stroke: #000000; stroke-width: 0.8"/>
      </g>
     </g>
     <g id="text_4">
      <!-- 0.6 -->
      <g transform="translate(370.629688 480.436562) scale(0.1 -0.1)">
       <defs>
        <path id="DejaVuSans-36" d="M 2113 2584 
Q 1688 2584 1439 2293 
Q 1191 2003 1191 1497 
Q 1191 994 1439 701 
Q 1688 409 2113 409 
Q 2538 409 2786 701 
Q 3034 994 3034 1497 
Q 3034 2003 2786 2293 
Q 2538 2584 2113 2584 
z
M 3366 4563 
L 3366 3988 
Q 3128 4100 2886 4159 
Q 2644 4219 2406 4219 
Q 1781 4219 1451 3797 
Q 1122 3375 1075 2522 
Q 1259 2794 1537 2939 
Q 1816 3084 2150 3084 
Q 2853 3084 3261 2657 
Q 3669 2231 3669 1497 
Q 3669 778 3244 343 
Q 2819 -91 2113 -91 
Q 1303 -91 875 529 
Q 447 1150 447 2328 
Q 447 3434 972 4092 
Q 1497 4750 2381 4750 
Q 2619 4750 2861 4703 
Q 3103 4656 3366 4563 
z
" transform="scale(0.015625)"/>
       </defs>
       <use xlink:href="#DejaVuSans-30"/>
       <use xlink:href="#DejaVuSans-2e" x="63.623047"/>
       <use xlink:href="#DejaVuSans-36" x="95.410156"/>
      </g>
     </g>
    </g>
    <g id="xtick_5">
     <g id="line2d_10">
      <path d="M 490.18125 465.838125 
L 490.18125 22.318125 
" clip-path="url(#pf0864f242d)" style="fill: none; stroke: #b0b0b0; stroke-width: 0.8; stroke-linecap: square"/>
     </g>
     <g id="line2d_11">
      <g>
       <use xlink:href="#m03ad7057b9" x="490.18125" y="465.838125" style="stroke: #000000; stroke-width: 0.8"/>
      </g>
     </g>
     <g id="text_5">
      <!-- 0.8 -->
      <g transform="translate(482.229688 480.436562) scale(0.1 -0.1)">
       <defs>
        <path id="DejaVuSans-38" d="M 2034 2216 
Q 1584 2216 1326 1975 
Q 1069 1734 1069 1313 
Q 1069 891 1326 650 
Q 1584 409 2034 409 
Q 2484 409 2743 651 
Q 3003 894 3003 1313 
Q 3003 1734 2745 1975 
Q 2488 2216 2034 2216 
z
M 1403 2484 
Q 997 2584 770 2862 
Q 544 3141 544 3541 
Q 544 4100 942 4425 
Q 1341 4750 2034 4750 
Q 2731 4750 3128 4425 
Q 3525 4100 3525 3541 
Q 3525 3141 3298 2862 
Q 3072 2584 2669 2484 
Q 3125 2378 3379 2068 
Q 3634 1759 3634 1313 
Q 3634 634 3220 271 
Q 2806 -91 2034 -91 
Q 1263 -91 848 271 
Q 434 634 434 1313 
Q 434 1759 690 2068 
Q 947 2378 1403 2484 
z
M 1172 3481 
Q 1172 3119 1398 2916 
Q 1625 2713 2034 2713 
Q 2441 2713 2670 2916 
Q 2900 3119 2900 3481 
Q 2900 3844 2670 4047 
Q 2441 4250 2034 4250 
Q 1625 4250 1398 4047 
Q 1172 3844 1172 3481 
z
" transform="scale(0.015625)"/>
       </defs>
       <use xlink:href="#DejaVuSans-30"/>
       <use xlink:href="#DejaVuSans-2e" x="63.623047"/>
       <use xlink:href="#DejaVuSans-38" x="95.410156"/>
      </g>
     </g>
    </g>
    <g id="xtick_6">
     <g id="line2d_12">
      <path d="M 601.78125 465.838125 
L 601.78125 22.318125 
" clip-path="url(#pf0864f242d)" style="fill: none; stroke: #b0b0b0; stroke-width: 0.8; stroke-linecap: square"/>
     </g>
     <g id="line2d_13">
      <g>
       <use xlink:href="#m03ad7057b9" x="601.78125" y="465.838125" style="stroke: #000000; stroke-width: 0.8"/>
      </g>
     </g>
     <g id="text_6">
      <!-- 1.0 -->
      <g transform="translate(593.829687 480.436562) scale(0.1 -0.1)">
       <defs>
        <path id="DejaVuSans-31" d="M 794 531 
L 1825 531 
L 1825 4091 
L 703 3866 
L 703 4441 
L 1819 4666 
L 2450 4666 
L 2450 531 
L 3481 531 
L 3481 0 
L 794 0 
L 794 531 
z
" transform="scale(0.015625)"/>
       </defs>
       <use xlink:href="#DejaVuSans-31"/>
       <use xlink:href="#DejaVuSans-2e" x="63.623047"/>
       <use xlink:href="#DejaVuSans-30" x="95.410156"/>
      </g>
     </g>
    </g>
    <g id="text_7">
     <!-- 1 - Specificity -->
     <g transform="translate(288.847656 494.114687) scale(0.1 -0.1)">
      <defs>
       <path id="DejaVuSans-20" transform="scale(0.015625)"/>
       <path id="DejaVuSans-2d" d="M 313 2009 
L 1997 2009 
L 1997 1497 
L 313 1497 
L 313 2009 
z
" transform="scale(0.015625)"/>
       <path id="DejaVuSans-53" d="M 3425 4513 
L 3425 3897 
Q 3066 4069 2747 4153 
Q 2428 4238 2131 4238 
Q 1616 4238 1336 4038 
Q 1056 3838 1056 3469 
Q 1056 3159 1242 3001 
Q 1428 2844 1947 2747 
L 2328 2669 
Q 3034 2534 3370 2195 
Q 3706 1856 3706 1288 
Q 3706 609 3251 259 
Q 2797 -91 1919 -91 
Q 1588 -91 1214 -16 
Q 841 59 441 206 
L 441 856 
Q 825 641 1194 531 
Q 1563 422 1919 422 
Q 2459 422 2753 634 
Q 3047 847 3047 1241 
Q 3047 1584 2836 1778 
Q 2625 1972 2144 2069 
L 1759 2144 
Q 1053 2284 737 2584 
Q 422 2884 422 3419 
Q 422 4038 858 4394 
Q 1294 4750 2059 4750 
Q 2388 4750 2728 4690 
Q 3069 4631 3425 4513 
z
" transform="scale(0.015625)"/>
       <path id="DejaVuSans-70" d="M 1159 525 
L 1159 -1331 
L 581 -1331 
L 581 3500 
L 1159 3500 
L 1159 2969 
Q 1341 3281 1617 3432 
Q 1894 3584 2278 3584 
Q 2916 3584 3314 3078 
Q 3713 2572 3713 1747 
Q 3713 922 3314 415 
Q 2916 -91 2278 -91 
Q 1894 -91 1617 61 
Q 1341 213 1159 525 
z
M 3116 1747 
Q 3116 2381 2855 2742 
Q 2594 3103 2138 3103 
Q 1681 3103 1420 2742 
Q 1159 2381 1159 1747 
Q 1159 1113 1420 752 
Q 1681 391 2138 391 
Q 2594 391 2855 752 
Q 3116 1113 3116 1747 
z
" transform="scale(0.015625)"/>
       <path id="DejaVuSans-65" d="M 3597 1894 
L 3597 1613 
L 953 1613 
Q 991 1019 1311 708 
Q 1631 397 2203 397 
Q 2534 397 2845 478 
Q 3156 559 3463 722 
L 3463 178 
Q 3153 47 2828 -22 
Q 2503 -91 2169 -91 
Q 1331 -91 842 396 
Q 353 884 353 1716 
Q 353 2575 817 3079 
Q 1281 3584 2069 3584 
Q 2775 3584 3186 3129 
Q 3597 2675 3597 1894 
z
M 3022 2063 
Q 3016 2534 2758 2815 
Q 2500 3097 2075 3097 
Q 1594 3097 1305 2825 
Q 1016 2553 972 2059 
L 3022 2063 
z
" transform="scale(0.015625)"/>
       <path id="DejaVuSans-63" d="M 3122 3366 
L 3122 2828 
Q 2878 2963 2633 3030 
Q 2388 3097 2138 3097 
Q 1578 3097 1268 2742 
Q 959 2388 959 1747 
Q 959 1106 1268 751 
Q 1578 397 2138 397 
Q 2388 397 2633 464 
Q 2878 531 3122 666 
L 3122 134 
Q 2881 22 2623 -34 
Q 2366 -91 2075 -91 
Q 1284 -91 818 406 
Q 353 903 353 1747 
Q 353 2603 823 3093 
Q 1294 3584 2113 3584 
Q 2378 3584 2631 3529 
Q 2884 3475 3122 3366 
z
" transform="scale(0.015625)"/>
       <path id="DejaVuSans-69" d="M 603 3500 
L 1178 3500 
L 1178 0 
L 603 0 
L 603 3500 
z
M 603 4863 
L 1178 4863 
L 1178 4134 
L 603 4134 
L 603 4863 
z
" transform="scale(0.015625)"/>
       <path id="DejaVuSans-66" d="M 2375 4863 
L 2375 4384 
L 1825 4384 
Q 1516 4384 1395 4259 
Q 1275 4134 1275 3809 
L 1275 3500 
L 2222 3500 
L 2222 3053 
L 1275 3053 
L 1275 0 
L 697 0 
L 697 3053 
L 147 3053 
L 147 3500 
L 697 3500 
L 697 3744 
Q 697 4328 969 4595 
Q 1241 4863 1831 4863 
L 2375 4863 
z
" transform="scale(0.015625)"/>
       <path id="DejaVuSans-74" d="M 1172 4494 
L 1172 3500 
L 2356 3500 
L 2356 3053 
L 1172 3053 
L 1172 1153 
Q 1172 725 1289 603 
Q 1406 481 1766 481 
L 2356 481 
L 2356 0 
L 1766 0 
Q 1100 0 847 248 
Q 594 497 594 1153 
L 594 3053 
L 172 3053 
L 172 3500 
L 594 3500 
L 594 4494 
L 1172 4494 
z
" transform="scale(0.015625)"/>
       <path id="DejaVuSans-79" d="M 2059 -325 
Q 1816 -950 1584 -1140 
Q 1353 -1331 966 -1331 
L 506 -1331 
L 506 -850 
L 844 -850 
Q 1081 -850 1212 -737 
Q 1344 -625 1503 -206 
L 1606 56 
L 191 3500 
L 800 3500 
L 1894 763 
L 2988 3500 
L 3597 3500 
L 2059 -325 
z
" transform="scale(0.015625)"/>
      </defs>
      <use xlink:href="#DejaVuSans-31"/>
      <use xlink:href="#DejaVuSans-20" x="63.623047"/>
      <use xlink:href="#DejaVuSans-2d" x="95.410156"/>
      <use xlink:href="#DejaVuSans-20" x="131.494141"/>
      <use xlink:href="#DejaVuSans-53" x="163.28125"/>
      <use xlink:href="#DejaVuSans-70" x="226.757812"/>
      <use xlink:href="#DejaVuSans-65" x="290.234375"/>
      <use xlink:href="#DejaVuSans-63" x="351.757812"/>
      <use xlink:href="#DejaVuSans-69" x="406.738281"/>
      <use xlink:href="#DejaVuSans-66" x="434.521484"/>
      <use xlink:href="#DejaVuSans-69" x="469.726562"/>
      <use xlink:href="#DejaVuSans-63" x="497.509766"/>
      <use xlink:href="#DejaVuSans-69" x="552.490234"/>
      <use xlink:href="#DejaVuSans-74" x="580.273438"/>
      <use xlink:href="#DejaVuSans-79" x="619.482422"/>
     </g>
    </g>
   </g>
   <g id="matplotlib.axis_2">
    <g id="ytick_1">
     <g id="line2d_14">
      <path d="M 43.78125 465.838125 
L 601.78125 465.838125 
" clip-path="url(#pf0864f242d)" style="fill: none; stroke: #b0b0b0; stroke-width: 0.8; stroke-linecap: square"/>
     </g>
     <g id="line2d_15">
      <defs>
       <path id="m7378a74743" d="M 0 0 
L -3.5 0 
" style="stroke: #000000; stroke-width: 0.8"/>
      </defs>
      <g>
       <use xlink:href="#m7378a74743" x="43.78125" y="465.838125" style="stroke: #000000; stroke-width: 0.8"/>
      </g>
     </g>
     <g id="text_8">
      <!-- 0.0 -->
      <g transform="translate(20.878125 469.637344) scale(0.1 -0.1)">
       <use xlink:href="#DejaVuSans-30"/>
       <use xlink:href="#DejaVuSans-2e" x="63.623047"/>
       <use xlink:href="#DejaVuSans-30" x="95.410156"/>
      </g>
     </g>
    </g>
    <g id="ytick_2">
     <g id="line2d_16">
      <path d="M 43.78125 378.873419 
L 601.78125 378.873419 
" clip-path="url(#pf0864f242d)" style="fill: none; stroke: #b0b0b0; stroke-width: 0.8; stroke-linecap: square"/>
     </g>
     <g id="line2d_17">
      <g>
       <use xlink:href="#m7378a74743" x="43.78125" y="378.873419" style="stroke: #000000; stroke-width: 0.8"/>
      </g>
     </g>
     <g id="text_9">
      <!-- 0.2 -->
      <g transform="translate(20.878125 382.672638) scale(0.1 -0.1)">
       <use xlink:href="#DejaVuSans-30"/>
       <use xlink:href="#DejaVuSans-2e" x="63.623047"/>
       <use xlink:href="#DejaVuSans-32" x="95.410156"/>
      </g>
     </g>
    </g>
    <g id="ytick_3">
     <g id="line2d_18">
      <path d="M 43.78125 291.908713 
L 601.78125 291.908713 
" clip-path="url(#pf0864f242d)" style="fill: none; stroke: #b0b0b0; stroke-width: 0.8; stroke-linecap: square"/>
     </g>
     <g id="line2d_19">
      <g>
       <use xlink:href="#m7378a74743" x="43.78125" y="291.908713" style="stroke: #000000; stroke-width: 0.8"/>
      </g>
     </g>
     <g id="text_10">
      <!-- 0.4 -->
      <g transform="translate(20.878125 295.707932) scale(0.1 -0.1)">
       <use xlink:href="#DejaVuSans-30"/>
       <use xlink:href="#DejaVuSans-2e" x="63.623047"/>
       <use xlink:href="#DejaVuSans-34" x="95.410156"/>
      </g>
     </g>
    </g>
    <g id="ytick_4">
     <g id="line2d_20">
      <path d="M 43.78125 204.944007 
L 601.78125 204.944007 
" clip-path="url(#pf0864f242d)" style="fill: none; stroke: #b0b0b0; stroke-width: 0.8; stroke-linecap: square"/>
     </g>
     <g id="line2d_21">
      <g>
       <use xlink:href="#m7378a74743" x="43.78125" y="204.944007" style="stroke: #000000; stroke-width: 0.8"/>
      </g>
     </g>
     <g id="text_11">
      <!-- 0.6 -->
      <g transform="translate(20.878125 208.743226) scale(0.1 -0.1)">
       <use xlink:href="#DejaVuSans-30"/>
       <use xlink:href="#DejaVuSans-2e" x="63.623047"/>
       <use xlink:href="#DejaVuSans-36" x="95.410156"/>
      </g>
     </g>
    </g>
    <g id="ytick_5">
     <g id="line2d_22">
      <path d="M 43.78125 117.979301 
L 601.78125 117.979301 
" clip-path="url(#pf0864f242d)" style="fill: none; stroke: #b0b0b0; stroke-width: 0.8; stroke-linecap: square"/>
     </g>
     <g id="line2d_23">
      <g>
       <use xlink:href="#m7378a74743" x="43.78125" y="117.979301" style="stroke: #000000; stroke-width: 0.8"/>
      </g>
     </g>
     <g id="text_12">
      <!-- 0.8 -->
      <g transform="translate(20.878125 121.77852) scale(0.1 -0.1)">
       <use xlink:href="#DejaVuSans-30"/>
       <use xlink:href="#DejaVuSans-2e" x="63.623047"/>
       <use xlink:href="#DejaVuSans-38" x="95.410156"/>
      </g>
     </g>
    </g>
    <g id="ytick_6">
     <g id="line2d_24">
      <path d="M 43.78125 31.014596 
L 601.78125 31.014596 
" clip-path="url(#pf0864f242d)" style="fill: none; stroke: #b0b0b0; stroke-width: 0.8; stroke-linecap: square"/>
     </g>
     <g id="line2d_25">
      <g>
       <use xlink:href="#m7378a74743" x="43.78125" y="31.014596" style="stroke: #000000; stroke-width: 0.8"/>
      </g>
     </g>
     <g id="text_13">
      <!-- 1.0 -->
      <g transform="translate(20.878125 34.813814) scale(0.1 -0.1)">
       <use xlink:href="#DejaVuSans-31"/>
       <use xlink:href="#DejaVuSans-2e" x="63.623047"/>
       <use xlink:href="#DejaVuSans-30" x="95.410156"/>
      </g>
     </g>
    </g>
    <g id="text_14">
     <!-- Sensitivity -->
     <g transform="translate(14.798438 270.108594) rotate(-90) scale(0.1 -0.1)">
      <defs>
       <path id="DejaVuSans-6e" d="M 3513 2113 
L 3513 0 
L 2938 0 
L 2938 2094 
Q 2938 2591 2744 2837 
Q 2550 3084 2163 3084 
Q 1697 3084 1428 2787 
Q 1159 2491 1159 1978 
L 1159 0 
L 581 0 
L 581 3500 
L 1159 3500 
L 1159 2956 
Q 1366 3272 1645 3428 
Q 1925 3584 2291 3584 
Q 2894 3584 3203 3211 
Q 3513 2838 3513 2113 
z
" transform="scale(0.015625)"/>
       <path id="DejaVuSans-73" d="M 2834 3397 
L 2834 2853 
Q 2591 2978 2328 3040 
Q 2066 3103 1784 3103 
Q 1356 3103 1142 2972 
Q 928 2841 928 2578 
Q 928 2378 1081 2264 
Q 1234 2150 1697 2047 
L 1894 2003 
Q 2506 1872 2764 1633 
Q 3022 1394 3022 966 
Q 3022 478 2636 193 
Q 2250 -91 1575 -91 
Q 1294 -91 989 -36 
Q 684 19 347 128 
L 347 722 
Q 666 556 975 473 
Q 1284 391 1588 391 
Q 1994 391 2212 530 
Q 2431 669 2431 922 
Q 2431 1156 2273 1281 
Q 2116 1406 1581 1522 
L 1381 1569 
Q 847 1681 609 1914 
Q 372 2147 372 2553 
Q 372 3047 722 3315 
Q 1072 3584 1716 3584 
Q 2034 3584 2315 3537 
Q 2597 3491 2834 3397 
z
" transform="scale(0.015625)"/>
       <path id="DejaVuSans-76" d="M 191 3500 
L 800 3500 
L 1894 563 
L 2988 3500 
L 3597 3500 
L 2284 0 
L 1503 0 
L 191 3500 
z
" transform="scale(0.015625)"/>
      </defs>
      <use xlink:href="#DejaVuSans-53"/>
      <use xlink:href="#DejaVuSans-65" x="63.476562"/>
      <use xlink:href="#DejaVuSans-6e" x="125"/>
      <use xlink:href="#DejaVuSans-73" x="188.378906"/>
      <use xlink:href="#DejaVuSans-69" x="240.478516"/>
      <use xlink:href="#DejaVuSans-74" x="268.261719"/>
      <use xlink:href="#DejaVuSans-69" x="307.470703"/>
      <use xlink:href="#DejaVuSans-76" x="335.253906"/>
      <use xlink:href="#DejaVuSans-69" x="394.433594"/>
      <use xlink:href="#DejaVuSans-74" x="422.216797"/>
      <use xlink:href="#DejaVuSans-79" x="461.425781"/>
     </g>
    </g>
   </g>
   <g id="patch_3">
    <path d="M 43.78125 465.838125 
L 43.78125 22.318125 
" style="fill: none; stroke: #000000; stroke-width: 0.8; stroke-linejoin: miter; stroke-linecap: square"/>
   </g>
   <g id="patch_4">
    <path d="M 601.78125 465.838125 
L 601.78125 22.318125 
" style="fill: none; stroke: #000000; stroke-width: 0.8; stroke-linejoin: miter; stroke-linecap: square"/>
   </g>
   <g id="patch_5">
    <path d="M 43.78125 465.838125 
L 601.78125 465.838125 
" style="fill: none; stroke: #000000; stroke-width: 0.8; stroke-linejoin: miter; stroke-linecap: square"/>
   </g>
   <g id="patch_6">
    <path d="M 43.78125 22.318125 
L 601.78125 22.318125 
" style="fill: none; stroke: #000000; stroke-width: 0.8; stroke-linejoin: miter; stroke-linecap: square"/>
   </g>
   <g id="text_15">
    <!-- ROC Curves Comparison For Eight Machine Learning Models -->
    <g transform="translate(142.499063 16.318125) scale(0.12 -0.12)">
     <defs>
      <path id="DejaVuSans-52" d="M 2841 2188 
Q 3044 2119 3236 1894 
Q 3428 1669 3622 1275 
L 4263 0 
L 3584 0 
L 2988 1197 
Q 2756 1666 2539 1819 
Q 2322 1972 1947 1972 
L 1259 1972 
L 1259 0 
L 628 0 
L 628 4666 
L 2053 4666 
Q 2853 4666 3247 4331 
Q 3641 3997 3641 3322 
Q 3641 2881 3436 2590 
Q 3231 2300 2841 2188 
z
M 1259 4147 
L 1259 2491 
L 2053 2491 
Q 2509 2491 2742 2702 
Q 2975 2913 2975 3322 
Q 2975 3731 2742 3939 
Q 2509 4147 2053 4147 
L 1259 4147 
z
" transform="scale(0.015625)"/>
      <path id="DejaVuSans-4f" d="M 2522 4238 
Q 1834 4238 1429 3725 
Q 1025 3213 1025 2328 
Q 1025 1447 1429 934 
Q 1834 422 2522 422 
Q 3209 422 3611 934 
Q 4013 1447 4013 2328 
Q 4013 3213 3611 3725 
Q 3209 4238 2522 4238 
z
M 2522 4750 
Q 3503 4750 4090 4092 
Q 4678 3434 4678 2328 
Q 4678 1225 4090 567 
Q 3503 -91 2522 -91 
Q 1538 -91 948 565 
Q 359 1222 359 2328 
Q 359 3434 948 4092 
Q 1538 4750 2522 4750 
z
" transform="scale(0.015625)"/>
      <path id="DejaVuSans-43" d="M 4122 4306 
L 4122 3641 
Q 3803 3938 3442 4084 
Q 3081 4231 2675 4231 
Q 1875 4231 1450 3742 
Q 1025 3253 1025 2328 
Q 1025 1406 1450 917 
Q 1875 428 2675 428 
Q 3081 428 3442 575 
Q 3803 722 4122 1019 
L 4122 359 
Q 3791 134 3420 21 
Q 3050 -91 2638 -91 
Q 1578 -91 968 557 
Q 359 1206 359 2328 
Q 359 3453 968 4101 
Q 1578 4750 2638 4750 
Q 3056 4750 3426 4639 
Q 3797 4528 4122 4306 
z
" transform="scale(0.015625)"/>
      <path id="DejaVuSans-75" d="M 544 1381 
L 544 3500 
L 1119 3500 
L 1119 1403 
Q 1119 906 1312 657 
Q 1506 409 1894 409 
Q 2359 409 2629 706 
Q 2900 1003 2900 1516 
L 2900 3500 
L 3475 3500 
L 3475 0 
L 2900 0 
L 2900 538 
Q 2691 219 2414 64 
Q 2138 -91 1772 -91 
Q 1169 -91 856 284 
Q 544 659 544 1381 
z
M 1991 3584 
L 1991 3584 
z
" transform="scale(0.015625)"/>
      <path id="DejaVuSans-72" d="M 2631 2963 
Q 2534 3019 2420 3045 
Q 2306 3072 2169 3072 
Q 1681 3072 1420 2755 
Q 1159 2438 1159 1844 
L 1159 0 
L 581 0 
L 581 3500 
L 1159 3500 
L 1159 2956 
Q 1341 3275 1631 3429 
Q 1922 3584 2338 3584 
Q 2397 3584 2469 3576 
Q 2541 3569 2628 3553 
L 2631 2963 
z
" transform="scale(0.015625)"/>
      <path id="DejaVuSans-6f" d="M 1959 3097 
Q 1497 3097 1228 2736 
Q 959 2375 959 1747 
Q 959 1119 1226 758 
Q 1494 397 1959 397 
Q 2419 397 2687 759 
Q 2956 1122 2956 1747 
Q 2956 2369 2687 2733 
Q 2419 3097 1959 3097 
z
M 1959 3584 
Q 2709 3584 3137 3096 
Q 3566 2609 3566 1747 
Q 3566 888 3137 398 
Q 2709 -91 1959 -91 
Q 1206 -91 779 398 
Q 353 888 353 1747 
Q 353 2609 779 3096 
Q 1206 3584 1959 3584 
z
" transform="scale(0.015625)"/>
      <path id="DejaVuSans-6d" d="M 3328 2828 
Q 3544 3216 3844 3400 
Q 4144 3584 4550 3584 
Q 5097 3584 5394 3201 
Q 5691 2819 5691 2113 
L 5691 0 
L 5113 0 
L 5113 2094 
Q 5113 2597 4934 2840 
Q 4756 3084 4391 3084 
Q 3944 3084 3684 2787 
Q 3425 2491 3425 1978 
L 3425 0 
L 2847 0 
L 2847 2094 
Q 2847 2600 2669 2842 
Q 2491 3084 2119 3084 
Q 1678 3084 1418 2786 
Q 1159 2488 1159 1978 
L 1159 0 
L 581 0 
L 581 3500 
L 1159 3500 
L 1159 2956 
Q 1356 3278 1631 3431 
Q 1906 3584 2284 3584 
Q 2666 3584 2933 3390 
Q 3200 3197 3328 2828 
z
" transform="scale(0.015625)"/>
      <path id="DejaVuSans-61" d="M 2194 1759 
Q 1497 1759 1228 1600 
Q 959 1441 959 1056 
Q 959 750 1161 570 
Q 1363 391 1709 391 
Q 2188 391 2477 730 
Q 2766 1069 2766 1631 
L 2766 1759 
L 2194 1759 
z
M 3341 1997 
L 3341 0 
L 2766 0 
L 2766 531 
Q 2569 213 2275 61 
Q 1981 -91 1556 -91 
Q 1019 -91 701 211 
Q 384 513 384 1019 
Q 384 1609 779 1909 
Q 1175 2209 1959 2209 
L 2766 2209 
L 2766 2266 
Q 2766 2663 2505 2880 
Q 2244 3097 1772 3097 
Q 1472 3097 1187 3025 
Q 903 2953 641 2809 
L 641 3341 
Q 956 3463 1253 3523 
Q 1550 3584 1831 3584 
Q 2591 3584 2966 3190 
Q 3341 2797 3341 1997 
z
" transform="scale(0.015625)"/>
      <path id="DejaVuSans-46" d="M 628 4666 
L 3309 4666 
L 3309 4134 
L 1259 4134 
L 1259 2759 
L 3109 2759 
L 3109 2228 
L 1259 2228 
L 1259 0 
L 628 0 
L 628 4666 
z
" transform="scale(0.015625)"/>
      <path id="DejaVuSans-45" d="M 628 4666 
L 3578 4666 
L 3578 4134 
L 1259 4134 
L 1259 2753 
L 3481 2753 
L 3481 2222 
L 1259 2222 
L 1259 531 
L 3634 531 
L 3634 0 
L 628 0 
L 628 4666 
z
" transform="scale(0.015625)"/>
      <path id="DejaVuSans-67" d="M 2906 1791 
Q 2906 2416 2648 2759 
Q 2391 3103 1925 3103 
Q 1463 3103 1205 2759 
Q 947 2416 947 1791 
Q 947 1169 1205 825 
Q 1463 481 1925 481 
Q 2391 481 2648 825 
Q 2906 1169 2906 1791 
z
M 3481 434 
Q 3481 -459 3084 -895 
Q 2688 -1331 1869 -1331 
Q 1566 -1331 1297 -1286 
Q 1028 -1241 775 -1147 
L 775 -588 
Q 1028 -725 1275 -790 
Q 1522 -856 1778 -856 
Q 2344 -856 2625 -561 
Q 2906 -266 2906 331 
L 2906 616 
Q 2728 306 2450 153 
Q 2172 0 1784 0 
Q 1141 0 747 490 
Q 353 981 353 1791 
Q 353 2603 747 3093 
Q 1141 3584 1784 3584 
Q 2172 3584 2450 3431 
Q 2728 3278 2906 2969 
L 2906 3500 
L 3481 3500 
L 3481 434 
z
" transform="scale(0.015625)"/>
      <path id="DejaVuSans-68" d="M 3513 2113 
L 3513 0 
L 2938 0 
L 2938 2094 
Q 2938 2591 2744 2837 
Q 2550 3084 2163 3084 
Q 1697 3084 1428 2787 
Q 1159 2491 1159 1978 
L 1159 0 
L 581 0 
L 581 4863 
L 1159 4863 
L 1159 2956 
Q 1366 3272 1645 3428 
Q 1925 3584 2291 3584 
Q 2894 3584 3203 3211 
Q 3513 2838 3513 2113 
z
" transform="scale(0.015625)"/>
      <path id="DejaVuSans-4d" d="M 628 4666 
L 1569 4666 
L 2759 1491 
L 3956 4666 
L 4897 4666 
L 4897 0 
L 4281 0 
L 4281 4097 
L 3078 897 
L 2444 897 
L 1241 4097 
L 1241 0 
L 628 0 
L 628 4666 
z
" transform="scale(0.015625)"/>
      <path id="DejaVuSans-4c" d="M 628 4666 
L 1259 4666 
L 1259 531 
L 3531 531 
L 3531 0 
L 628 0 
L 628 4666 
z
" transform="scale(0.015625)"/>
      <path id="DejaVuSans-64" d="M 2906 2969 
L 2906 4863 
L 3481 4863 
L 3481 0 
L 2906 0 
L 2906 525 
Q 2725 213 2448 61 
Q 2172 -91 1784 -91 
Q 1150 -91 751 415 
Q 353 922 353 1747 
Q 353 2572 751 3078 
Q 1150 3584 1784 3584 
Q 2172 3584 2448 3432 
Q 2725 3281 2906 2969 
z
M 947 1747 
Q 947 1113 1208 752 
Q 1469 391 1925 391 
Q 2381 391 2643 752 
Q 2906 1113 2906 1747 
Q 2906 2381 2643 2742 
Q 2381 3103 1925 3103 
Q 1469 3103 1208 2742 
Q 947 2381 947 1747 
z
" transform="scale(0.015625)"/>
      <path id="DejaVuSans-6c" d="M 603 4863 
L 1178 4863 
L 1178 0 
L 603 0 
L 603 4863 
z
" transform="scale(0.015625)"/>
     </defs>
     <use xlink:href="#DejaVuSans-52"/>
     <use xlink:href="#DejaVuSans-4f" x="69.482422"/>
     <use xlink:href="#DejaVuSans-43" x="148.193359"/>
     <use xlink:href="#DejaVuSans-20" x="218.017578"/>
     <use xlink:href="#DejaVuSans-43" x="249.804688"/>
     <use xlink:href="#DejaVuSans-75" x="319.628906"/>
     <use xlink:href="#DejaVuSans-72" x="383.007812"/>
     <use xlink:href="#DejaVuSans-76" x="424.121094"/>
     <use xlink:href="#DejaVuSans-65" x="483.300781"/>
     <use xlink:href="#DejaVuSans-73" x="544.824219"/>
     <use xlink:href="#DejaVuSans-20" x="596.923828"/>
     <use xlink:href="#DejaVuSans-43" x="628.710938"/>
     <use xlink:href="#DejaVuSans-6f" x="698.535156"/>
     <use xlink:href="#DejaVuSans-6d" x="759.716797"/>
     <use xlink:href="#DejaVuSans-70" x="857.128906"/>
     <use xlink:href="#DejaVuSans-61" x="920.605469"/>
     <use xlink:href="#DejaVuSans-72" x="981.884766"/>
     <use xlink:href="#DejaVuSans-69" x="1022.998047"/>
     <use xlink:href="#DejaVuSans-73" x="1050.78125"/>
     <use xlink:href="#DejaVuSans-6f" x="1102.880859"/>
     <use xlink:href="#DejaVuSans-6e" x="1164.0625"/>
     <use xlink:href="#DejaVuSans-20" x="1227.441406"/>
     <use xlink:href="#DejaVuSans-46" x="1259.228516"/>
     <use xlink:href="#DejaVuSans-6f" x="1313.123047"/>
     <use xlink:href="#DejaVuSans-72" x="1374.304688"/>
     <use xlink:href="#DejaVuSans-20" x="1415.417969"/>
     <use xlink:href="#DejaVuSans-45" x="1447.205078"/>
     <use xlink:href="#DejaVuSans-69" x="1510.388672"/>
     <use xlink:href="#DejaVuSans-67" x="1538.171875"/>
     <use xlink:href="#DejaVuSans-68" x="1601.648438"/>
     <use xlink:href="#DejaVuSans-74" x="1665.027344"/>
     <use xlink:href="#DejaVuSans-20" x="1704.236328"/>
     <use xlink:href="#DejaVuSans-4d" x="1736.023438"/>
     <use xlink:href="#DejaVuSans-61" x="1822.302734"/>
     <use xlink:href="#DejaVuSans-63" x="1883.582031"/>
     <use xlink:href="#DejaVuSans-68" x="1938.5625"/>
     <use xlink:href="#DejaVuSans-69" x="2001.941406"/>
     <use xlink:href="#DejaVuSans-6e" x="2029.724609"/>
     <use xlink:href="#DejaVuSans-65" x="2093.103516"/>
     <use xlink:href="#DejaVuSans-20" x="2154.626953"/>
     <use xlink:href="#DejaVuSans-4c" x="2186.414062"/>
     <use xlink:href="#DejaVuSans-65" x="2240.376953"/>
     <use xlink:href="#DejaVuSans-61" x="2301.900391"/>
     <use xlink:href="#DejaVuSans-72" x="2363.179688"/>
     <use xlink:href="#DejaVuSans-6e" x="2402.542969"/>
     <use xlink:href="#DejaVuSans-69" x="2465.921875"/>
     <use xlink:href="#DejaVuSans-6e" x="2493.705078"/>
     <use xlink:href="#DejaVuSans-67" x="2557.083984"/>
     <use xlink:href="#DejaVuSans-20" x="2620.560547"/>
     <use xlink:href="#DejaVuSans-4d" x="2652.347656"/>
     <use xlink:href="#DejaVuSans-6f" x="2738.626953"/>
     <use xlink:href="#DejaVuSans-64" x="2799.808594"/>
     <use xlink:href="#DejaVuSans-65" x="2863.285156"/>
     <use xlink:href="#DejaVuSans-6c" x="2924.808594"/>
     <use xlink:href="#DejaVuSans-73" x="2952.591797"/>
    </g>
   </g>
   <g id="line2d_26">
    <path d="M 43.78125 465.838125 
L 43.78125 458.591066 
L 43.78125 415.108713 
L 57.066964 415.108713 
L 57.066964 299.155772 
L 70.352679 299.155772 
L 70.352679 284.661654 
L 96.924107 284.661654 
L 96.924107 241.179301 
L 110.209821 241.179301 
L 110.209821 233.932243 
L 123.495536 233.932243 
L 123.495536 212.191066 
L 136.78125 212.191066 
L 136.78125 204.944007 
L 163.352679 204.944007 
L 163.352679 190.44989 
L 176.638393 190.44989 
L 176.638393 132.473419 
L 203.209821 132.473419 
L 203.209821 117.979301 
L 243.066964 117.979301 
L 243.066964 110.732243 
L 256.352679 110.732243 
L 256.352679 103.485184 
L 282.924107 103.485184 
L 282.924107 96.238125 
L 296.209821 96.238125 
L 296.209821 88.991066 
L 309.495536 88.991066 
L 309.495536 81.744007 
L 322.78125 81.744007 
L 322.78125 67.24989 
L 389.209821 67.24989 
L 389.209821 52.755772 
L 402.495536 52.755772 
L 402.495536 45.508713 
L 535.352679 45.508713 
L 535.352679 38.261654 
L 561.924107 38.261654 
L 561.924107 31.014596 
L 601.78125 31.014596 
" clip-path="url(#pf0864f242d)" style="fill: none; stroke: #add8e6; stroke-width: 1.5; stroke-linecap: square"/>
   </g>
   <g id="line2d_27">
    <path d="M 43.78125 465.838125 
L 43.78125 458.591066 
L 43.78125 400.614596 
L 57.066964 400.614596 
L 57.066964 306.402831 
L 83.638393 306.402831 
L 83.638393 241.179301 
L 96.924107 241.179301 
L 96.924107 219.438125 
L 136.78125 219.438125 
L 136.78125 190.44989 
L 176.638393 190.44989 
L 176.638393 161.461654 
L 189.924107 161.461654 
L 189.924107 125.22636 
L 256.352679 125.22636 
L 256.352679 103.485184 
L 269.638393 103.485184 
L 269.638393 88.991066 
L 296.209821 88.991066 
L 296.209821 74.496949 
L 336.066964 74.496949 
L 336.066964 67.24989 
L 402.495536 67.24989 
L 402.495536 60.002831 
L 442.352679 60.002831 
L 442.352679 52.755772 
L 455.638393 52.755772 
L 455.638393 45.508713 
L 495.495536 45.508713 
L 495.495536 38.261654 
L 522.066964 38.261654 
L 522.066964 31.014596 
L 601.78125 31.014596 
" clip-path="url(#pf0864f242d)" style="fill: none; stroke: #98fb98; stroke-width: 1.5; stroke-linecap: square"/>
   </g>
   <g id="line2d_28">
    <path d="M 43.78125 465.838125 
L 43.78125 458.591066 
L 43.78125 328.144007 
L 57.066964 328.144007 
L 57.066964 299.155772 
L 70.352679 299.155772 
L 70.352679 262.920478 
L 83.638393 262.920478 
L 83.638393 241.179301 
L 96.924107 241.179301 
L 96.924107 226.685184 
L 110.209821 226.685184 
L 110.209821 204.944007 
L 136.78125 204.944007 
L 136.78125 183.202831 
L 163.352679 183.202831 
L 163.352679 175.955772 
L 189.924107 175.955772 
L 189.924107 161.461654 
L 203.209821 161.461654 
L 203.209821 154.214596 
L 216.495536 154.214596 
L 216.495536 125.22636 
L 243.066964 125.22636 
L 243.066964 117.979301 
L 256.352679 117.979301 
L 256.352679 103.485184 
L 269.638393 103.485184 
L 269.638393 96.238125 
L 349.352679 96.238125 
L 349.352679 88.991066 
L 375.924107 88.991066 
L 375.924107 74.496949 
L 389.209821 74.496949 
L 389.209821 67.24989 
L 402.495536 67.24989 
L 402.495536 60.002831 
L 429.066964 60.002831 
L 429.066964 52.755772 
L 442.352679 52.755772 
L 442.352679 45.508713 
L 508.78125 45.508713 
L 508.78125 38.261654 
L 561.924107 38.261654 
L 561.924107 31.014596 
L 601.78125 31.014596 
" clip-path="url(#pf0864f242d)" style="fill: none; stroke: #dda0dd; stroke-width: 1.5; stroke-linecap: square"/>
   </g>
   <g id="line2d_29">
    <path d="M 43.78125 465.838125 
L 43.78125 458.591066 
L 43.78125 436.84989 
L 57.066964 436.84989 
L 57.066964 364.379301 
L 70.352679 364.379301 
L 70.352679 328.144007 
L 83.638393 328.144007 
L 83.638393 299.155772 
L 96.924107 299.155772 
L 96.924107 277.414596 
L 110.209821 277.414596 
L 110.209821 255.673419 
L 123.495536 255.673419 
L 123.495536 233.932243 
L 150.066964 233.932243 
L 150.066964 197.696949 
L 163.352679 197.696949 
L 163.352679 161.461654 
L 176.638393 161.461654 
L 176.638393 146.967537 
L 189.924107 146.967537 
L 189.924107 132.473419 
L 203.209821 132.473419 
L 203.209821 125.22636 
L 216.495536 125.22636 
L 216.495536 117.979301 
L 256.352679 117.979301 
L 256.352679 96.238125 
L 282.924107 96.238125 
L 282.924107 88.991066 
L 296.209821 88.991066 
L 296.209821 81.744007 
L 322.78125 81.744007 
L 322.78125 74.496949 
L 349.352679 74.496949 
L 349.352679 67.24989 
L 415.78125 67.24989 
L 415.78125 60.002831 
L 429.066964 60.002831 
L 429.066964 52.755772 
L 442.352679 52.755772 
L 442.352679 45.508713 
L 535.352679 45.508713 
L 535.352679 38.261654 
L 601.78125 38.261654 
L 601.78125 31.014596 
" clip-path="url(#pf0864f242d)" style="fill: none; stroke: #f0e68c; stroke-width: 1.5; stroke-linecap: square"/>
   </g>
   <g id="line2d_30">
    <path d="M 43.78125 465.838125 
L 83.638393 364.379301 
L 83.638393 349.885184 
L 96.924107 349.885184 
L 96.924107 335.391066 
L 123.495536 335.391066 
L 123.495536 313.64989 
L 136.78125 313.64989 
L 136.78125 299.155772 
L 150.066964 299.155772 
L 150.066964 284.661654 
L 163.352679 284.661654 
L 163.352679 277.414596 
L 176.638393 277.414596 
L 176.638393 233.932243 
L 189.924107 233.932243 
L 189.924107 212.191066 
L 203.209821 212.191066 
L 203.209821 204.944007 
L 243.066964 204.944007 
L 243.066964 190.44989 
L 256.352679 190.44989 
L 256.352679 183.202831 
L 269.638393 183.202831 
L 269.638393 175.955772 
L 296.209821 175.955772 
L 296.209821 168.708713 
L 309.495536 168.708713 
L 309.495536 161.461654 
L 322.78125 161.461654 
L 322.78125 154.214596 
L 336.066964 154.214596 
L 336.066964 110.732243 
L 349.352679 110.732243 
L 349.352679 103.485184 
L 415.78125 103.485184 
L 415.78125 81.744007 
L 468.924107 81.744007 
L 468.924107 74.496949 
L 522.066964 74.496949 
L 522.066964 67.24989 
L 535.352679 67.24989 
L 535.352679 45.508713 
L 561.924107 45.508713 
L 561.924107 38.261654 
L 575.209821 38.261654 
L 575.209821 31.014596 
L 601.78125 31.014596 
" clip-path="url(#pf0864f242d)" style="fill: none; stroke: #ffb6c1; stroke-width: 1.5; stroke-linecap: square"/>
   </g>
   <g id="line2d_31">
    <path d="M 43.78125 465.838125 
L 70.352679 371.62636 
L 70.352679 299.155772 
L 83.638393 299.155772 
L 83.638393 262.920478 
L 96.924107 262.920478 
L 96.924107 255.673419 
L 110.209821 255.673419 
L 110.209821 226.685184 
L 123.495536 226.685184 
L 123.495536 197.696949 
L 163.352679 197.696949 
L 163.352679 190.44989 
L 176.638393 190.44989 
L 176.638393 154.214596 
L 189.924107 154.214596 
L 189.924107 139.720478 
L 203.209821 139.720478 
L 203.209821 110.732243 
L 282.924107 110.732243 
L 282.924107 103.485184 
L 296.209821 103.485184 
L 296.209821 96.238125 
L 309.495536 96.238125 
L 309.495536 81.744007 
L 362.638393 81.744007 
L 362.638393 74.496949 
L 402.495536 74.496949 
L 402.495536 67.24989 
L 415.78125 67.24989 
L 415.78125 60.002831 
L 561.924107 60.002831 
L 561.924107 45.508713 
L 588.495536 45.508713 
L 588.495536 38.261654 
L 601.78125 38.261654 
L 601.78125 31.014596 
" clip-path="url(#pf0864f242d)" style="fill: none; stroke: #e6e6fa; stroke-width: 1.5; stroke-linecap: square"/>
   </g>
   <g id="line2d_32">
    <path d="M 43.78125 465.838125 
L 57.066964 371.62636 
L 70.352679 371.62636 
L 70.352679 284.661654 
L 110.209821 284.661654 
L 110.209821 255.673419 
L 123.495536 255.673419 
L 123.495536 241.179301 
L 136.78125 241.179301 
L 136.78125 226.685184 
L 176.638393 226.685184 
L 176.638393 190.44989 
L 203.209821 190.44989 
L 203.209821 175.955772 
L 216.495536 175.955772 
L 216.495536 161.461654 
L 229.78125 161.461654 
L 229.78125 154.214596 
L 243.066964 154.214596 
L 243.066964 139.720478 
L 256.352679 139.720478 
L 256.352679 132.473419 
L 269.638393 132.473419 
L 269.638393 103.485184 
L 282.924107 103.485184 
L 282.924107 96.238125 
L 296.209821 96.238125 
L 296.209821 81.744007 
L 349.352679 81.744007 
L 349.352679 60.002831 
L 482.209821 60.002831 
L 482.209821 52.755772 
L 561.924107 52.755772 
L 561.924107 45.508713 
L 575.209821 45.508713 
L 575.209821 38.261654 
L 601.78125 38.261654 
L 601.78125 31.014596 
" clip-path="url(#pf0864f242d)" style="fill: none; stroke: #f0f8ff; stroke-width: 1.5; stroke-linecap: square"/>
   </g>
   <g id="legend_1">
    <g id="patch_7">
     <path d="M 408.857813 460.838125 
L 594.78125 460.838125 
Q 596.78125 460.838125 596.78125 458.838125 
L 596.78125 327.735 
Q 596.78125 325.735 594.78125 325.735 
L 408.857813 325.735 
Q 406.857813 325.735 406.857813 327.735 
L 406.857813 458.838125 
Q 406.857813 460.838125 408.857813 460.838125 
z
" style="fill: #ffffff; opacity: 0.8; stroke: #cccccc; stroke-linejoin: miter"/>
    </g>
    <g id="line2d_33">
     <path d="M 410.857813 333.833437 
L 420.857813 333.833437 
L 430.857813 333.833437 
" style="fill: none; stroke: #8b0000; stroke-width: 2; stroke-linecap: square"/>
    </g>
    <g id="text_16">
     <!-- XGBoost (AUC = 0.7968) -->
     <g transform="translate(438.857813 337.333437) scale(0.1 -0.1)">
      <defs>
       <path id="DejaVuSans-58" d="M 403 4666 
L 1081 4666 
L 2241 2931 
L 3406 4666 
L 4084 4666 
L 2584 2425 
L 4184 0 
L 3506 0 
L 2194 1984 
L 872 0 
L 191 0 
L 1856 2491 
L 403 4666 
z
" transform="scale(0.015625)"/>
       <path id="DejaVuSans-47" d="M 3809 666 
L 3809 1919 
L 2778 1919 
L 2778 2438 
L 4434 2438 
L 4434 434 
Q 4069 175 3628 42 
Q 3188 -91 2688 -91 
Q 1594 -91 976 548 
Q 359 1188 359 2328 
Q 359 3472 976 4111 
Q 1594 4750 2688 4750 
Q 3144 4750 3555 4637 
Q 3966 4525 4313 4306 
L 4313 3634 
Q 3963 3931 3569 4081 
Q 3175 4231 2741 4231 
Q 1884 4231 1454 3753 
Q 1025 3275 1025 2328 
Q 1025 1384 1454 906 
Q 1884 428 2741 428 
Q 3075 428 3337 486 
Q 3600 544 3809 666 
z
" transform="scale(0.015625)"/>
       <path id="DejaVuSans-42" d="M 1259 2228 
L 1259 519 
L 2272 519 
Q 2781 519 3026 730 
Q 3272 941 3272 1375 
Q 3272 1813 3026 2020 
Q 2781 2228 2272 2228 
L 1259 2228 
z
M 1259 4147 
L 1259 2741 
L 2194 2741 
Q 2656 2741 2882 2914 
Q 3109 3088 3109 3444 
Q 3109 3797 2882 3972 
Q 2656 4147 2194 4147 
L 1259 4147 
z
M 628 4666 
L 2241 4666 
Q 2963 4666 3353 4366 
Q 3744 4066 3744 3513 
Q 3744 3084 3544 2831 
Q 3344 2578 2956 2516 
Q 3422 2416 3680 2098 
Q 3938 1781 3938 1306 
Q 3938 681 3513 340 
Q 3088 0 2303 0 
L 628 0 
L 628 4666 
z
" transform="scale(0.015625)"/>
       <path id="DejaVuSans-28" d="M 1984 4856 
Q 1566 4138 1362 3434 
Q 1159 2731 1159 2009 
Q 1159 1288 1364 580 
Q 1569 -128 1984 -844 
L 1484 -844 
Q 1016 -109 783 600 
Q 550 1309 550 2009 
Q 550 2706 781 3412 
Q 1013 4119 1484 4856 
L 1984 4856 
z
" transform="scale(0.015625)"/>
       <path id="DejaVuSans-41" d="M 2188 4044 
L 1331 1722 
L 3047 1722 
L 2188 4044 
z
M 1831 4666 
L 2547 4666 
L 4325 0 
L 3669 0 
L 3244 1197 
L 1141 1197 
L 716 0 
L 50 0 
L 1831 4666 
z
" transform="scale(0.015625)"/>
       <path id="DejaVuSans-55" d="M 556 4666 
L 1191 4666 
L 1191 1831 
Q 1191 1081 1462 751 
Q 1734 422 2344 422 
Q 2950 422 3222 751 
Q 3494 1081 3494 1831 
L 3494 4666 
L 4128 4666 
L 4128 1753 
Q 4128 841 3676 375 
Q 3225 -91 2344 -91 
Q 1459 -91 1007 375 
Q 556 841 556 1753 
L 556 4666 
z
" transform="scale(0.015625)"/>
       <path id="DejaVuSans-3d" d="M 678 2906 
L 4684 2906 
L 4684 2381 
L 678 2381 
L 678 2906 
z
M 678 1631 
L 4684 1631 
L 4684 1100 
L 678 1100 
L 678 1631 
z
" transform="scale(0.015625)"/>
       <path id="DejaVuSans-37" d="M 525 4666 
L 3525 4666 
L 3525 4397 
L 1831 0 
L 1172 0 
L 2766 4134 
L 525 4134 
L 525 4666 
z
" transform="scale(0.015625)"/>
       <path id="DejaVuSans-39" d="M 703 97 
L 703 672 
Q 941 559 1184 500 
Q 1428 441 1663 441 
Q 2288 441 2617 861 
Q 2947 1281 2994 2138 
Q 2813 1869 2534 1725 
Q 2256 1581 1919 1581 
Q 1219 1581 811 2004 
Q 403 2428 403 3163 
Q 403 3881 828 4315 
Q 1253 4750 1959 4750 
Q 2769 4750 3195 4129 
Q 3622 3509 3622 2328 
Q 3622 1225 3098 567 
Q 2575 -91 1691 -91 
Q 1453 -91 1209 -44 
Q 966 3 703 97 
z
M 1959 2075 
Q 2384 2075 2632 2365 
Q 2881 2656 2881 3163 
Q 2881 3666 2632 3958 
Q 2384 4250 1959 4250 
Q 1534 4250 1286 3958 
Q 1038 3666 1038 3163 
Q 1038 2656 1286 2365 
Q 1534 2075 1959 2075 
z
" transform="scale(0.015625)"/>
       <path id="DejaVuSans-29" d="M 513 4856 
L 1013 4856 
Q 1481 4119 1714 3412 
Q 1947 2706 1947 2009 
Q 1947 1309 1714 600 
Q 1481 -109 1013 -844 
L 513 -844 
Q 928 -128 1133 580 
Q 1338 1288 1338 2009 
Q 1338 2731 1133 3434 
Q 928 4138 513 4856 
z
" transform="scale(0.015625)"/>
      </defs>
      <use xlink:href="#DejaVuSans-58"/>
      <use xlink:href="#DejaVuSans-47" x="68.505859"/>
      <use xlink:href="#DejaVuSans-42" x="145.996094"/>
      <use xlink:href="#DejaVuSans-6f" x="214.599609"/>
      <use xlink:href="#DejaVuSans-6f" x="275.78125"/>
      <use xlink:href="#DejaVuSans-73" x="336.962891"/>
      <use xlink:href="#DejaVuSans-74" x="389.0625"/>
      <use xlink:href="#DejaVuSans-20" x="428.271484"/>
      <use xlink:href="#DejaVuSans-28" x="460.058594"/>
      <use xlink:href="#DejaVuSans-41" x="499.072266"/>
      <use xlink:href="#DejaVuSans-55" x="567.480469"/>
      <use xlink:href="#DejaVuSans-43" x="640.673828"/>
      <use xlink:href="#DejaVuSans-20" x="710.498047"/>
      <use xlink:href="#DejaVuSans-3d" x="742.285156"/>
      <use xlink:href="#DejaVuSans-20" x="826.074219"/>
      <use xlink:href="#DejaVuSans-30" x="857.861328"/>
      <use xlink:href="#DejaVuSans-2e" x="921.484375"/>
      <use xlink:href="#DejaVuSans-37" x="953.271484"/>
      <use xlink:href="#DejaVuSans-39" x="1016.894531"/>
      <use xlink:href="#DejaVuSans-36" x="1080.517578"/>
      <use xlink:href="#DejaVuSans-38" x="1144.140625"/>
      <use xlink:href="#DejaVuSans-29" x="1207.763672"/>
     </g>
    </g>
    <g id="line2d_34">
     <path d="M 410.857813 348.511562 
L 420.857813 348.511562 
L 430.857813 348.511562 
" style="fill: none; stroke: #add8e6; stroke-width: 1.5; stroke-linecap: square"/>
    </g>
    <g id="text_17">
     <!-- LightGBM (AUC = 0.8091) -->
     <g transform="translate(438.857813 352.011562) scale(0.1 -0.1)">
      <use xlink:href="#DejaVuSans-4c"/>
      <use xlink:href="#DejaVuSans-69" x="55.712891"/>
      <use xlink:href="#DejaVuSans-67" x="83.496094"/>
      <use xlink:href="#DejaVuSans-68" x="146.972656"/>
      <use xlink:href="#DejaVuSans-74" x="210.351562"/>
      <use xlink:href="#DejaVuSans-47" x="249.560547"/>
      <use xlink:href="#DejaVuSans-42" x="327.050781"/>
      <use xlink:href="#DejaVuSans-4d" x="395.654297"/>
      <use xlink:href="#DejaVuSans-20" x="481.933594"/>
      <use xlink:href="#DejaVuSans-28" x="513.720703"/>
      <use xlink:href="#DejaVuSans-41" x="552.734375"/>
      <use xlink:href="#DejaVuSans-55" x="621.142578"/>
      <use xlink:href="#DejaVuSans-43" x="694.335938"/>
      <use xlink:href="#DejaVuSans-20" x="764.160156"/>
      <use xlink:href="#DejaVuSans-3d" x="795.947266"/>
      <use xlink:href="#DejaVuSans-20" x="879.736328"/>
      <use xlink:href="#DejaVuSans-30" x="911.523438"/>
      <use xlink:href="#DejaVuSans-2e" x="975.146484"/>
      <use xlink:href="#DejaVuSans-38" x="1006.933594"/>
      <use xlink:href="#DejaVuSans-30" x="1070.556641"/>
      <use xlink:href="#DejaVuSans-39" x="1134.179688"/>
      <use xlink:href="#DejaVuSans-31" x="1197.802734"/>
      <use xlink:href="#DejaVuSans-29" x="1261.425781"/>
     </g>
    </g>
    <g id="line2d_35">
     <path d="M 410.857813 363.189687 
L 420.857813 363.189687 
L 430.857813 363.189687 
" style="fill: none; stroke: #98fb98; stroke-width: 1.5; stroke-linecap: square"/>
    </g>
    <g id="text_18">
     <!-- CatBoost (AUC = 0.8115) -->
     <g transform="translate(438.857813 366.689687) scale(0.1 -0.1)">
      <defs>
       <path id="DejaVuSans-35" d="M 691 4666 
L 3169 4666 
L 3169 4134 
L 1269 4134 
L 1269 2991 
Q 1406 3038 1543 3061 
Q 1681 3084 1819 3084 
Q 2600 3084 3056 2656 
Q 3513 2228 3513 1497 
Q 3513 744 3044 326 
Q 2575 -91 1722 -91 
Q 1428 -91 1123 -41 
Q 819 9 494 109 
L 494 744 
Q 775 591 1075 516 
Q 1375 441 1709 441 
Q 2250 441 2565 725 
Q 2881 1009 2881 1497 
Q 2881 1984 2565 2268 
Q 2250 2553 1709 2553 
Q 1456 2553 1204 2497 
Q 953 2441 691 2322 
L 691 4666 
z
" transform="scale(0.015625)"/>
      </defs>
      <use xlink:href="#DejaVuSans-43"/>
      <use xlink:href="#DejaVuSans-61" x="69.824219"/>
      <use xlink:href="#DejaVuSans-74" x="131.103516"/>
      <use xlink:href="#DejaVuSans-42" x="170.3125"/>
      <use xlink:href="#DejaVuSans-6f" x="238.916016"/>
      <use xlink:href="#DejaVuSans-6f" x="300.097656"/>
      <use xlink:href="#DejaVuSans-73" x="361.279297"/>
      <use xlink:href="#DejaVuSans-74" x="413.378906"/>
      <use xlink:href="#DejaVuSans-20" x="452.587891"/>
      <use xlink:href="#DejaVuSans-28" x="484.375"/>
      <use xlink:href="#DejaVuSans-41" x="523.388672"/>
      <use xlink:href="#DejaVuSans-55" x="591.796875"/>
      <use xlink:href="#DejaVuSans-43" x="664.990234"/>
      <use xlink:href="#DejaVuSans-20" x="734.814453"/>
      <use xlink:href="#DejaVuSans-3d" x="766.601562"/>
      <use xlink:href="#DejaVuSans-20" x="850.390625"/>
      <use xlink:href="#DejaVuSans-30" x="882.177734"/>
      <use xlink:href="#DejaVuSans-2e" x="945.800781"/>
      <use xlink:href="#DejaVuSans-38" x="977.587891"/>
      <use xlink:href="#DejaVuSans-31" x="1041.210938"/>
      <use xlink:href="#DejaVuSans-31" x="1104.833984"/>
      <use xlink:href="#DejaVuSans-35" x="1168.457031"/>
      <use xlink:href="#DejaVuSans-29" x="1232.080078"/>
     </g>
    </g>
    <g id="line2d_36">
     <path d="M 410.857813 377.867812 
L 420.857813 377.867812 
L 430.857813 377.867812 
" style="fill: none; stroke: #dda0dd; stroke-width: 1.5; stroke-linecap: square"/>
    </g>
    <g id="text_19">
     <!-- RandomForest (AUC = 0.8075) -->
     <g transform="translate(438.857813 381.367812) scale(0.1 -0.1)">
      <use xlink:href="#DejaVuSans-52"/>
      <use xlink:href="#DejaVuSans-61" x="67.232422"/>
      <use xlink:href="#DejaVuSans-6e" x="128.511719"/>
      <use xlink:href="#DejaVuSans-64" x="191.890625"/>
      <use xlink:href="#DejaVuSans-6f" x="255.367188"/>
      <use xlink:href="#DejaVuSans-6d" x="316.548828"/>
      <use xlink:href="#DejaVuSans-46" x="413.960938"/>
      <use xlink:href="#DejaVuSans-6f" x="467.855469"/>
      <use xlink:href="#DejaVuSans-72" x="529.037109"/>
      <use xlink:href="#DejaVuSans-65" x="567.900391"/>
      <use xlink:href="#DejaVuSans-73" x="629.423828"/>
      <use xlink:href="#DejaVuSans-74" x="681.523438"/>
      <use xlink:href="#DejaVuSans-20" x="720.732422"/>
      <use xlink:href="#DejaVuSans-28" x="752.519531"/>
      <use xlink:href="#DejaVuSans-41" x="791.533203"/>
      <use xlink:href="#DejaVuSans-55" x="859.941406"/>
      <use xlink:href="#DejaVuSans-43" x="933.134766"/>
      <use xlink:href="#DejaVuSans-20" x="1002.958984"/>
      <use xlink:href="#DejaVuSans-3d" x="1034.746094"/>
      <use xlink:href="#DejaVuSans-20" x="1118.535156"/>
      <use xlink:href="#DejaVuSans-30" x="1150.322266"/>
      <use xlink:href="#DejaVuSans-2e" x="1213.945312"/>
      <use xlink:href="#DejaVuSans-38" x="1245.732422"/>
      <use xlink:href="#DejaVuSans-30" x="1309.355469"/>
      <use xlink:href="#DejaVuSans-37" x="1372.978516"/>
      <use xlink:href="#DejaVuSans-35" x="1436.601562"/>
      <use xlink:href="#DejaVuSans-29" x="1500.224609"/>
     </g>
    </g>
    <g id="line2d_37">
     <path d="M 410.857813 392.545937 
L 420.857813 392.545937 
L 430.857813 392.545937 
" style="fill: none; stroke: #f0e68c; stroke-width: 1.5; stroke-linecap: square"/>
    </g>
    <g id="text_20">
     <!-- LR (AUC = 0.7921) -->
     <g transform="translate(438.857813 396.045937) scale(0.1 -0.1)">
      <use xlink:href="#DejaVuSans-4c"/>
      <use xlink:href="#DejaVuSans-52" x="55.712891"/>
      <use xlink:href="#DejaVuSans-20" x="125.195312"/>
      <use xlink:href="#DejaVuSans-28" x="156.982422"/>
      <use xlink:href="#DejaVuSans-41" x="195.996094"/>
      <use xlink:href="#DejaVuSans-55" x="264.404297"/>
      <use xlink:href="#DejaVuSans-43" x="337.597656"/>
      <use xlink:href="#DejaVuSans-20" x="407.421875"/>
      <use xlink:href="#DejaVuSans-3d" x="439.208984"/>
      <use xlink:href="#DejaVuSans-20" x="522.998047"/>
      <use xlink:href="#DejaVuSans-30" x="554.785156"/>
      <use xlink:href="#DejaVuSans-2e" x="618.408203"/>
      <use xlink:href="#DejaVuSans-37" x="650.195312"/>
      <use xlink:href="#DejaVuSans-39" x="713.818359"/>
      <use xlink:href="#DejaVuSans-32" x="777.441406"/>
      <use xlink:href="#DejaVuSans-31" x="841.064453"/>
      <use xlink:href="#DejaVuSans-29" x="904.6875"/>
     </g>
    </g>
    <g id="line2d_38">
     <path d="M 410.857813 407.224062 
L 420.857813 407.224062 
L 430.857813 407.224062 
" style="fill: none; stroke: #ffb6c1; stroke-width: 1.5; stroke-linecap: square"/>
    </g>
    <g id="text_21">
     <!-- KNN (AUC = 0.6758) -->
     <g transform="translate(438.857813 410.724062) scale(0.1 -0.1)">
      <defs>
       <path id="DejaVuSans-4b" d="M 628 4666 
L 1259 4666 
L 1259 2694 
L 3353 4666 
L 4166 4666 
L 1850 2491 
L 4331 0 
L 3500 0 
L 1259 2247 
L 1259 0 
L 628 0 
L 628 4666 
z
" transform="scale(0.015625)"/>
       <path id="DejaVuSans-4e" d="M 628 4666 
L 1478 4666 
L 3547 763 
L 3547 4666 
L 4159 4666 
L 4159 0 
L 3309 0 
L 1241 3903 
L 1241 0 
L 628 0 
L 628 4666 
z
" transform="scale(0.015625)"/>
      </defs>
      <use xlink:href="#DejaVuSans-4b"/>
      <use xlink:href="#DejaVuSans-4e" x="65.576172"/>
      <use xlink:href="#DejaVuSans-4e" x="140.380859"/>
      <use xlink:href="#DejaVuSans-20" x="215.185547"/>
      <use xlink:href="#DejaVuSans-28" x="246.972656"/>
      <use xlink:href="#DejaVuSans-41" x="285.986328"/>
      <use xlink:href="#DejaVuSans-55" x="354.394531"/>
      <use xlink:href="#DejaVuSans-43" x="427.587891"/>
      <use xlink:href="#DejaVuSans-20" x="497.412109"/>
      <use xlink:href="#DejaVuSans-3d" x="529.199219"/>
      <use xlink:href="#DejaVuSans-20" x="612.988281"/>
      <use xlink:href="#DejaVuSans-30" x="644.775391"/>
      <use xlink:href="#DejaVuSans-2e" x="708.398438"/>
      <use xlink:href="#DejaVuSans-36" x="740.185547"/>
      <use xlink:href="#DejaVuSans-37" x="803.808594"/>
      <use xlink:href="#DejaVuSans-35" x="867.431641"/>
      <use xlink:href="#DejaVuSans-38" x="931.054688"/>
      <use xlink:href="#DejaVuSans-29" x="994.677734"/>
     </g>
    </g>
    <g id="line2d_39">
     <path d="M 410.857813 421.902187 
L 420.857813 421.902187 
L 430.857813 421.902187 
" style="fill: none; stroke: #e6e6fa; stroke-width: 1.5; stroke-linecap: square"/>
    </g>
    <g id="text_22">
     <!-- NaiveBayes (AUC = 0.7849) -->
     <g transform="translate(438.857813 425.402187) scale(0.1 -0.1)">
      <use xlink:href="#DejaVuSans-4e"/>
      <use xlink:href="#DejaVuSans-61" x="74.804688"/>
      <use xlink:href="#DejaVuSans-69" x="136.083984"/>
      <use xlink:href="#DejaVuSans-76" x="163.867188"/>
      <use xlink:href="#DejaVuSans-65" x="223.046875"/>
      <use xlink:href="#DejaVuSans-42" x="284.570312"/>
      <use xlink:href="#DejaVuSans-61" x="353.173828"/>
      <use xlink:href="#DejaVuSans-79" x="414.453125"/>
      <use xlink:href="#DejaVuSans-65" x="473.632812"/>
      <use xlink:href="#DejaVuSans-73" x="535.15625"/>
      <use xlink:href="#DejaVuSans-20" x="587.255859"/>
      <use xlink:href="#DejaVuSans-28" x="619.042969"/>
      <use xlink:href="#DejaVuSans-41" x="658.056641"/>
      <use xlink:href="#DejaVuSans-55" x="726.464844"/>
      <use xlink:href="#DejaVuSans-43" x="799.658203"/>
      <use xlink:href="#DejaVuSans-20" x="869.482422"/>
      <use xlink:href="#DejaVuSans-3d" x="901.269531"/>
      <use xlink:href="#DejaVuSans-20" x="985.058594"/>
      <use xlink:href="#DejaVuSans-30" x="1016.845703"/>
      <use xlink:href="#DejaVuSans-2e" x="1080.46875"/>
      <use xlink:href="#DejaVuSans-37" x="1112.255859"/>
      <use xlink:href="#DejaVuSans-38" x="1175.878906"/>
      <use xlink:href="#DejaVuSans-34" x="1239.501953"/>
      <use xlink:href="#DejaVuSans-39" x="1303.125"/>
      <use xlink:href="#DejaVuSans-29" x="1366.748047"/>
     </g>
    </g>
    <g id="line2d_40">
     <path d="M 410.857813 436.580312 
L 420.857813 436.580312 
L 430.857813 436.580312 
" style="fill: none; stroke: #f0f8ff; stroke-width: 1.5; stroke-linecap: square"/>
    </g>
    <g id="text_23">
     <!-- QDA (AUC = 0.7685) -->
     <g transform="translate(438.857813 440.080312) scale(0.1 -0.1)">
      <defs>
       <path id="DejaVuSans-51" d="M 2522 4238 
Q 1834 4238 1429 3725 
Q 1025 3213 1025 2328 
Q 1025 1447 1429 934 
Q 1834 422 2522 422 
Q 3209 422 3611 934 
Q 4013 1447 4013 2328 
Q 4013 3213 3611 3725 
Q 3209 4238 2522 4238 
z
M 3406 84 
L 4238 -825 
L 3475 -825 
L 2784 -78 
Q 2681 -84 2626 -87 
Q 2572 -91 2522 -91 
Q 1538 -91 948 567 
Q 359 1225 359 2328 
Q 359 3434 948 4092 
Q 1538 4750 2522 4750 
Q 3503 4750 4090 4092 
Q 4678 3434 4678 2328 
Q 4678 1516 4351 937 
Q 4025 359 3406 84 
z
" transform="scale(0.015625)"/>
       <path id="DejaVuSans-44" d="M 1259 4147 
L 1259 519 
L 2022 519 
Q 2988 519 3436 956 
Q 3884 1394 3884 2338 
Q 3884 3275 3436 3711 
Q 2988 4147 2022 4147 
L 1259 4147 
z
M 628 4666 
L 1925 4666 
Q 3281 4666 3915 4102 
Q 4550 3538 4550 2338 
Q 4550 1131 3912 565 
Q 3275 0 1925 0 
L 628 0 
L 628 4666 
z
" transform="scale(0.015625)"/>
      </defs>
      <use xlink:href="#DejaVuSans-51"/>
      <use xlink:href="#DejaVuSans-44" x="78.710938"/>
      <use xlink:href="#DejaVuSans-41" x="153.962891"/>
      <use xlink:href="#DejaVuSans-20" x="222.371094"/>
      <use xlink:href="#DejaVuSans-28" x="254.158203"/>
      <use xlink:href="#DejaVuSans-41" x="293.171875"/>
      <use xlink:href="#DejaVuSans-55" x="361.580078"/>
      <use xlink:href="#DejaVuSans-43" x="434.773438"/>
      <use xlink:href="#DejaVuSans-20" x="504.597656"/>
      <use xlink:href="#DejaVuSans-3d" x="536.384766"/>
      <use xlink:href="#DejaVuSans-20" x="620.173828"/>
      <use xlink:href="#DejaVuSans-30" x="651.960938"/>
      <use xlink:href="#DejaVuSans-2e" x="715.583984"/>
      <use xlink:href="#DejaVuSans-37" x="747.371094"/>
      <use xlink:href="#DejaVuSans-36" x="810.994141"/>
      <use xlink:href="#DejaVuSans-38" x="874.617188"/>
      <use xlink:href="#DejaVuSans-35" x="938.240234"/>
      <use xlink:href="#DejaVuSans-29" x="1001.863281"/>
     </g>
    </g>
    <g id="line2d_41">
     <path d="M 410.857813 451.258437 
L 420.857813 451.258437 
L 430.857813 451.258437 
" style="fill: none; stroke-dasharray: 5.55,2.4; stroke-dashoffset: 0; stroke: #000000; stroke-width: 1.5"/>
    </g>
    <g id="text_24">
     <!-- Random -->
     <g transform="translate(438.857813 454.758437) scale(0.1 -0.1)">
      <use xlink:href="#DejaVuSans-52"/>
      <use xlink:href="#DejaVuSans-61" x="67.232422"/>
      <use xlink:href="#DejaVuSans-6e" x="128.511719"/>
      <use xlink:href="#DejaVuSans-64" x="191.890625"/>
      <use xlink:href="#DejaVuSans-6f" x="255.367188"/>
      <use xlink:href="#DejaVuSans-6d" x="316.548828"/>
     </g>
    </g>
   </g>
   <g id="line2d_42">
    <path d="M 43.78125 465.838125 
L 43.78125 458.591066 
L 43.78125 393.367537 
L 57.066964 393.367537 
L 57.066964 328.144007 
L 70.352679 328.144007 
L 70.352679 320.896949 
L 83.638393 320.896949 
L 83.638393 299.155772 
L 96.924107 299.155772 
L 96.924107 277.414596 
L 110.209821 277.414596 
L 110.209821 262.920478 
L 123.495536 262.920478 
L 123.495536 255.673419 
L 136.78125 255.673419 
L 136.78125 233.932243 
L 150.066964 233.932243 
L 150.066964 219.438125 
L 163.352679 219.438125 
L 163.352679 183.202831 
L 176.638393 183.202831 
L 176.638393 168.708713 
L 189.924107 168.708713 
L 189.924107 154.214596 
L 229.78125 154.214596 
L 229.78125 139.720478 
L 243.066964 139.720478 
L 243.066964 132.473419 
L 256.352679 132.473419 
L 256.352679 103.485184 
L 269.638393 103.485184 
L 269.638393 88.991066 
L 282.924107 88.991066 
L 282.924107 74.496949 
L 296.209821 74.496949 
L 296.209821 67.24989 
L 309.495536 67.24989 
L 309.495536 60.002831 
L 375.924107 60.002831 
L 375.924107 52.755772 
L 389.209821 52.755772 
L 389.209821 45.508713 
L 482.209821 45.508713 
L 482.209821 38.261654 
L 575.209821 38.261654 
L 575.209821 31.014596 
L 601.78125 31.014596 
" clip-path="url(#pf0864f242d)" style="fill: none; stroke: #8b0000; stroke-width: 2; stroke-linecap: square"/>
   </g>
  </g>
 </g>
 <defs>
  <clipPath id="pf0864f242d">
   <rect x="43.78125" y="22.318125" width="558" height="443.52"/>
  </clipPath>
 </defs>
</svg>
